G04 #@! TF.GenerationSoftware,KiCad,Pcbnew,5.1.5-52549c5~84~ubuntu18.04.1*
G04 #@! TF.CreationDate,2020-03-09T20:57:05+05:30*
G04 #@! TF.ProjectId,esdm,6573646d-2e6b-4696-9361-645f70636258,rev?*
G04 #@! TF.SameCoordinates,Original*
G04 #@! TF.FileFunction,Soldermask,Top*
G04 #@! TF.FilePolarity,Negative*
%FSLAX46Y46*%
G04 Gerber Fmt 4.6, Leading zero omitted, Abs format (unit mm)*
G04 Created by KiCad (PCBNEW 5.1.5-52549c5~84~ubuntu18.04.1) date 2020-03-09 20:57:05*
%MOMM*%
%LPD*%
G04 APERTURE LIST*
%ADD10C,0.100000*%
G04 APERTURE END LIST*
D10*
G36*
X126774072Y-75750918D02*
G01*
X126822555Y-75771000D01*
X127019939Y-75852759D01*
X127241212Y-76000610D01*
X127429390Y-76188788D01*
X127577241Y-76410061D01*
X127679082Y-76655928D01*
X127731000Y-76916938D01*
X127731000Y-77183062D01*
X127679082Y-77444072D01*
X127577241Y-77689939D01*
X127429390Y-77911212D01*
X127241212Y-78099390D01*
X127019939Y-78247241D01*
X127019938Y-78247242D01*
X127019937Y-78247242D01*
X126774072Y-78349082D01*
X126513063Y-78401000D01*
X126246937Y-78401000D01*
X125985928Y-78349082D01*
X125740063Y-78247242D01*
X125740062Y-78247242D01*
X125740061Y-78247241D01*
X125518788Y-78099390D01*
X125330610Y-77911212D01*
X125182759Y-77689939D01*
X125080918Y-77444072D01*
X125029000Y-77183062D01*
X125029000Y-76916938D01*
X125080918Y-76655928D01*
X125182759Y-76410061D01*
X125330610Y-76188788D01*
X125518788Y-76000610D01*
X125740061Y-75852759D01*
X125937446Y-75771000D01*
X125985928Y-75750918D01*
X126246937Y-75699000D01*
X126513063Y-75699000D01*
X126774072Y-75750918D01*
G37*
G36*
X161111000Y-75771000D02*
G01*
X157209000Y-75771000D01*
X157209000Y-73669000D01*
X161111000Y-73669000D01*
X161111000Y-75771000D01*
G37*
G36*
X139151000Y-75461000D02*
G01*
X135249000Y-75461000D01*
X135249000Y-73359000D01*
X139151000Y-73359000D01*
X139151000Y-75461000D01*
G37*
G36*
X123774072Y-71050918D02*
G01*
X124019939Y-71152759D01*
X124131328Y-71227187D01*
X124241211Y-71300609D01*
X124429391Y-71488789D01*
X124577242Y-71710063D01*
X124641377Y-71864899D01*
X124679082Y-71955928D01*
X124731000Y-72216938D01*
X124731000Y-72483062D01*
X124679082Y-72744072D01*
X124577241Y-72989939D01*
X124429390Y-73211212D01*
X124241212Y-73399390D01*
X124019939Y-73547241D01*
X124019938Y-73547242D01*
X124019937Y-73547242D01*
X123774072Y-73649082D01*
X123513063Y-73701000D01*
X123246937Y-73701000D01*
X122985928Y-73649082D01*
X122740063Y-73547242D01*
X122740062Y-73547242D01*
X122740061Y-73547241D01*
X122518788Y-73399390D01*
X122330610Y-73211212D01*
X122182759Y-72989939D01*
X122080918Y-72744072D01*
X122029000Y-72483062D01*
X122029000Y-72216938D01*
X122080918Y-71955928D01*
X122118623Y-71864899D01*
X122182758Y-71710063D01*
X122330609Y-71488789D01*
X122518789Y-71300609D01*
X122628672Y-71227187D01*
X122740061Y-71152759D01*
X122985928Y-71050918D01*
X123246937Y-70999000D01*
X123513063Y-70999000D01*
X123774072Y-71050918D01*
G37*
G36*
X130731000Y-73701000D02*
G01*
X128029000Y-73701000D01*
X128029000Y-70999000D01*
X130731000Y-70999000D01*
X130731000Y-73701000D01*
G37*
G36*
X142898674Y-71853465D02*
G01*
X142936367Y-71864899D01*
X142971103Y-71883466D01*
X143001548Y-71908452D01*
X143026534Y-71938897D01*
X143045101Y-71973633D01*
X143056535Y-72011326D01*
X143061000Y-72056661D01*
X143061000Y-73143339D01*
X143056535Y-73188674D01*
X143045101Y-73226367D01*
X143026534Y-73261103D01*
X143001548Y-73291548D01*
X142971103Y-73316534D01*
X142936367Y-73335101D01*
X142898674Y-73346535D01*
X142853339Y-73351000D01*
X142016661Y-73351000D01*
X141971326Y-73346535D01*
X141933633Y-73335101D01*
X141898897Y-73316534D01*
X141868452Y-73291548D01*
X141843466Y-73261103D01*
X141824899Y-73226367D01*
X141813465Y-73188674D01*
X141809000Y-73143339D01*
X141809000Y-72056661D01*
X141813465Y-72011326D01*
X141824899Y-71973633D01*
X141843466Y-71938897D01*
X141868452Y-71908452D01*
X141898897Y-71883466D01*
X141933633Y-71864899D01*
X141971326Y-71853465D01*
X142016661Y-71849000D01*
X142853339Y-71849000D01*
X142898674Y-71853465D01*
G37*
G36*
X144948674Y-71853465D02*
G01*
X144986367Y-71864899D01*
X145021103Y-71883466D01*
X145051548Y-71908452D01*
X145076534Y-71938897D01*
X145095101Y-71973633D01*
X145106535Y-72011326D01*
X145111000Y-72056661D01*
X145111000Y-73143339D01*
X145106535Y-73188674D01*
X145095101Y-73226367D01*
X145076534Y-73261103D01*
X145051548Y-73291548D01*
X145021103Y-73316534D01*
X144986367Y-73335101D01*
X144948674Y-73346535D01*
X144903339Y-73351000D01*
X144066661Y-73351000D01*
X144021326Y-73346535D01*
X143983633Y-73335101D01*
X143948897Y-73316534D01*
X143918452Y-73291548D01*
X143893466Y-73261103D01*
X143874899Y-73226367D01*
X143863465Y-73188674D01*
X143859000Y-73143339D01*
X143859000Y-72056661D01*
X143863465Y-72011326D01*
X143874899Y-71973633D01*
X143893466Y-71938897D01*
X143918452Y-71908452D01*
X143948897Y-71883466D01*
X143983633Y-71864899D01*
X144021326Y-71853465D01*
X144066661Y-71849000D01*
X144903339Y-71849000D01*
X144948674Y-71853465D01*
G37*
G36*
X146687395Y-69035546D02*
G01*
X146860466Y-69107234D01*
X146892221Y-69128452D01*
X147016227Y-69211310D01*
X147148690Y-69343773D01*
X147185403Y-69398718D01*
X147252766Y-69499534D01*
X147324454Y-69672605D01*
X147361000Y-69856333D01*
X147361000Y-70043667D01*
X147324454Y-70227395D01*
X147252766Y-70400466D01*
X147222096Y-70446367D01*
X147148690Y-70556227D01*
X147016227Y-70688690D01*
X146937818Y-70741081D01*
X146860466Y-70792766D01*
X146687395Y-70864454D01*
X146503667Y-70901000D01*
X146316333Y-70901000D01*
X146132605Y-70864454D01*
X145959534Y-70792766D01*
X145882182Y-70741081D01*
X145803773Y-70688690D01*
X145671310Y-70556227D01*
X145597904Y-70446367D01*
X145567234Y-70400466D01*
X145495546Y-70227395D01*
X145459000Y-70043667D01*
X145459000Y-69856333D01*
X145495546Y-69672605D01*
X145567234Y-69499534D01*
X145634597Y-69398718D01*
X145671310Y-69343773D01*
X145803773Y-69211310D01*
X145927779Y-69128452D01*
X145959534Y-69107234D01*
X146132605Y-69035546D01*
X146316333Y-68999000D01*
X146503667Y-68999000D01*
X146687395Y-69035546D01*
G37*
G36*
X143018674Y-69323465D02*
G01*
X143056367Y-69334899D01*
X143091103Y-69353466D01*
X143121548Y-69378452D01*
X143146534Y-69408897D01*
X143165101Y-69443633D01*
X143176535Y-69481326D01*
X143181000Y-69526661D01*
X143181000Y-70363339D01*
X143176535Y-70408674D01*
X143165101Y-70446367D01*
X143146534Y-70481103D01*
X143121548Y-70511548D01*
X143091103Y-70536534D01*
X143056367Y-70555101D01*
X143018674Y-70566535D01*
X142973339Y-70571000D01*
X141886661Y-70571000D01*
X141841326Y-70566535D01*
X141803633Y-70555101D01*
X141768897Y-70536534D01*
X141738452Y-70511548D01*
X141713466Y-70481103D01*
X141694899Y-70446367D01*
X141683465Y-70408674D01*
X141679000Y-70363339D01*
X141679000Y-69526661D01*
X141683465Y-69481326D01*
X141694899Y-69443633D01*
X141713466Y-69408897D01*
X141738452Y-69378452D01*
X141768897Y-69353466D01*
X141803633Y-69334899D01*
X141841326Y-69323465D01*
X141886661Y-69319000D01*
X142973339Y-69319000D01*
X143018674Y-69323465D01*
G37*
G36*
X150958674Y-69073465D02*
G01*
X150996367Y-69084899D01*
X151031103Y-69103466D01*
X151061548Y-69128452D01*
X151086534Y-69158897D01*
X151105101Y-69193633D01*
X151116535Y-69231326D01*
X151121000Y-69276661D01*
X151121000Y-70113339D01*
X151116535Y-70158674D01*
X151105101Y-70196367D01*
X151086534Y-70231103D01*
X151061548Y-70261548D01*
X151031103Y-70286534D01*
X150996367Y-70305101D01*
X150958674Y-70316535D01*
X150913339Y-70321000D01*
X149826661Y-70321000D01*
X149781326Y-70316535D01*
X149743633Y-70305101D01*
X149708897Y-70286534D01*
X149678452Y-70261548D01*
X149653466Y-70231103D01*
X149634899Y-70196367D01*
X149623465Y-70158674D01*
X149619000Y-70113339D01*
X149619000Y-69276661D01*
X149623465Y-69231326D01*
X149634899Y-69193633D01*
X149653466Y-69158897D01*
X149678452Y-69128452D01*
X149708897Y-69103466D01*
X149743633Y-69084899D01*
X149781326Y-69073465D01*
X149826661Y-69069000D01*
X150913339Y-69069000D01*
X150958674Y-69073465D01*
G37*
G36*
X153728674Y-69003465D02*
G01*
X153766367Y-69014899D01*
X153801103Y-69033466D01*
X153831548Y-69058452D01*
X153856534Y-69088897D01*
X153875101Y-69123633D01*
X153886535Y-69161326D01*
X153891000Y-69206661D01*
X153891000Y-70043339D01*
X153886535Y-70088674D01*
X153875101Y-70126367D01*
X153856534Y-70161103D01*
X153831548Y-70191548D01*
X153801103Y-70216534D01*
X153766367Y-70235101D01*
X153728674Y-70246535D01*
X153683339Y-70251000D01*
X152596661Y-70251000D01*
X152551326Y-70246535D01*
X152513633Y-70235101D01*
X152478897Y-70216534D01*
X152448452Y-70191548D01*
X152423466Y-70161103D01*
X152404899Y-70126367D01*
X152393465Y-70088674D01*
X152389000Y-70043339D01*
X152389000Y-69206661D01*
X152393465Y-69161326D01*
X152404899Y-69123633D01*
X152423466Y-69088897D01*
X152448452Y-69058452D01*
X152478897Y-69033466D01*
X152513633Y-69014899D01*
X152551326Y-69003465D01*
X152596661Y-68999000D01*
X153683339Y-68999000D01*
X153728674Y-69003465D01*
G37*
G36*
X162261000Y-69471000D02*
G01*
X160659000Y-69471000D01*
X160659000Y-67369000D01*
X162261000Y-67369000D01*
X162261000Y-69471000D01*
G37*
G36*
X157661000Y-69471000D02*
G01*
X156059000Y-69471000D01*
X156059000Y-67369000D01*
X157661000Y-67369000D01*
X157661000Y-69471000D01*
G37*
G36*
X159961000Y-69471000D02*
G01*
X158359000Y-69471000D01*
X158359000Y-67369000D01*
X159961000Y-67369000D01*
X159961000Y-69471000D01*
G37*
G36*
X135701000Y-69161000D02*
G01*
X134099000Y-69161000D01*
X134099000Y-67059000D01*
X135701000Y-67059000D01*
X135701000Y-69161000D01*
G37*
G36*
X140301000Y-69161000D02*
G01*
X138699000Y-69161000D01*
X138699000Y-67059000D01*
X140301000Y-67059000D01*
X140301000Y-69161000D01*
G37*
G36*
X138001000Y-69161000D02*
G01*
X136399000Y-69161000D01*
X136399000Y-67059000D01*
X138001000Y-67059000D01*
X138001000Y-69161000D01*
G37*
G36*
X143018674Y-67273465D02*
G01*
X143056367Y-67284899D01*
X143091103Y-67303466D01*
X143121548Y-67328452D01*
X143146534Y-67358897D01*
X143165101Y-67393633D01*
X143176535Y-67431326D01*
X143181000Y-67476661D01*
X143181000Y-68313339D01*
X143176535Y-68358674D01*
X143165101Y-68396367D01*
X143146534Y-68431103D01*
X143121548Y-68461548D01*
X143091103Y-68486534D01*
X143056367Y-68505101D01*
X143018674Y-68516535D01*
X142973339Y-68521000D01*
X141886661Y-68521000D01*
X141841326Y-68516535D01*
X141803633Y-68505101D01*
X141768897Y-68486534D01*
X141738452Y-68461548D01*
X141713466Y-68431103D01*
X141694899Y-68396367D01*
X141683465Y-68358674D01*
X141679000Y-68313339D01*
X141679000Y-67476661D01*
X141683465Y-67431326D01*
X141694899Y-67393633D01*
X141713466Y-67358897D01*
X141738452Y-67328452D01*
X141768897Y-67303466D01*
X141803633Y-67284899D01*
X141841326Y-67273465D01*
X141886661Y-67269000D01*
X142973339Y-67269000D01*
X143018674Y-67273465D01*
G37*
G36*
X147361000Y-68361000D02*
G01*
X145459000Y-68361000D01*
X145459000Y-66459000D01*
X147361000Y-66459000D01*
X147361000Y-68361000D01*
G37*
G36*
X150958674Y-67023465D02*
G01*
X150996367Y-67034899D01*
X151031103Y-67053466D01*
X151061548Y-67078452D01*
X151086534Y-67108897D01*
X151105101Y-67143633D01*
X151116535Y-67181326D01*
X151121000Y-67226661D01*
X151121000Y-68063339D01*
X151116535Y-68108674D01*
X151105101Y-68146367D01*
X151086534Y-68181103D01*
X151061548Y-68211548D01*
X151031103Y-68236534D01*
X150996367Y-68255101D01*
X150958674Y-68266535D01*
X150913339Y-68271000D01*
X149826661Y-68271000D01*
X149781326Y-68266535D01*
X149743633Y-68255101D01*
X149708897Y-68236534D01*
X149678452Y-68211548D01*
X149653466Y-68181103D01*
X149634899Y-68146367D01*
X149623465Y-68108674D01*
X149619000Y-68063339D01*
X149619000Y-67226661D01*
X149623465Y-67181326D01*
X149634899Y-67143633D01*
X149653466Y-67108897D01*
X149678452Y-67078452D01*
X149708897Y-67053466D01*
X149743633Y-67034899D01*
X149781326Y-67023465D01*
X149826661Y-67019000D01*
X150913339Y-67019000D01*
X150958674Y-67023465D01*
G37*
G36*
X153728674Y-66953465D02*
G01*
X153766367Y-66964899D01*
X153801103Y-66983466D01*
X153831548Y-67008452D01*
X153856534Y-67038897D01*
X153875101Y-67073633D01*
X153886535Y-67111326D01*
X153891000Y-67156661D01*
X153891000Y-67993339D01*
X153886535Y-68038674D01*
X153875101Y-68076367D01*
X153856534Y-68111103D01*
X153831548Y-68141548D01*
X153801103Y-68166534D01*
X153766367Y-68185101D01*
X153728674Y-68196535D01*
X153683339Y-68201000D01*
X152596661Y-68201000D01*
X152551326Y-68196535D01*
X152513633Y-68185101D01*
X152478897Y-68166534D01*
X152448452Y-68141548D01*
X152423466Y-68111103D01*
X152404899Y-68076367D01*
X152393465Y-68038674D01*
X152389000Y-67993339D01*
X152389000Y-67156661D01*
X152393465Y-67111326D01*
X152404899Y-67073633D01*
X152423466Y-67038897D01*
X152448452Y-67008452D01*
X152478897Y-66983466D01*
X152513633Y-66964899D01*
X152551326Y-66953465D01*
X152596661Y-66949000D01*
X153683339Y-66949000D01*
X153728674Y-66953465D01*
G37*
G36*
X165448674Y-65113465D02*
G01*
X165486367Y-65124899D01*
X165521103Y-65143466D01*
X165551548Y-65168452D01*
X165576534Y-65198897D01*
X165595101Y-65233633D01*
X165606535Y-65271326D01*
X165611000Y-65316661D01*
X165611000Y-66403339D01*
X165606535Y-66448674D01*
X165595101Y-66486367D01*
X165576534Y-66521103D01*
X165551548Y-66551548D01*
X165521103Y-66576534D01*
X165486367Y-66595101D01*
X165448674Y-66606535D01*
X165403339Y-66611000D01*
X164566661Y-66611000D01*
X164521326Y-66606535D01*
X164483633Y-66595101D01*
X164448897Y-66576534D01*
X164418452Y-66551548D01*
X164393466Y-66521103D01*
X164374899Y-66486367D01*
X164363465Y-66448674D01*
X164359000Y-66403339D01*
X164359000Y-65316661D01*
X164363465Y-65271326D01*
X164374899Y-65233633D01*
X164393466Y-65198897D01*
X164418452Y-65168452D01*
X164448897Y-65143466D01*
X164483633Y-65124899D01*
X164521326Y-65113465D01*
X164566661Y-65109000D01*
X165403339Y-65109000D01*
X165448674Y-65113465D01*
G37*
G36*
X163398674Y-65113465D02*
G01*
X163436367Y-65124899D01*
X163471103Y-65143466D01*
X163501548Y-65168452D01*
X163526534Y-65198897D01*
X163545101Y-65233633D01*
X163556535Y-65271326D01*
X163561000Y-65316661D01*
X163561000Y-66403339D01*
X163556535Y-66448674D01*
X163545101Y-66486367D01*
X163526534Y-66521103D01*
X163501548Y-66551548D01*
X163471103Y-66576534D01*
X163436367Y-66595101D01*
X163398674Y-66606535D01*
X163353339Y-66611000D01*
X162516661Y-66611000D01*
X162471326Y-66606535D01*
X162433633Y-66595101D01*
X162398897Y-66576534D01*
X162368452Y-66551548D01*
X162343466Y-66521103D01*
X162324899Y-66486367D01*
X162313465Y-66448674D01*
X162309000Y-66403339D01*
X162309000Y-65316661D01*
X162313465Y-65271326D01*
X162324899Y-65233633D01*
X162343466Y-65198897D01*
X162368452Y-65168452D01*
X162398897Y-65143466D01*
X162433633Y-65124899D01*
X162471326Y-65113465D01*
X162516661Y-65109000D01*
X163353339Y-65109000D01*
X163398674Y-65113465D01*
G37*
G36*
X121981000Y-62711000D02*
G01*
X120179000Y-62711000D01*
X120179000Y-60909000D01*
X121981000Y-60909000D01*
X121981000Y-62711000D01*
G37*
G36*
X118653512Y-60913927D02*
G01*
X118802812Y-60943624D01*
X118966784Y-61011544D01*
X119114354Y-61110147D01*
X119239853Y-61235646D01*
X119338456Y-61383216D01*
X119406376Y-61547188D01*
X119441000Y-61721259D01*
X119441000Y-61898741D01*
X119406376Y-62072812D01*
X119338456Y-62236784D01*
X119239853Y-62384354D01*
X119114354Y-62509853D01*
X118966784Y-62608456D01*
X118802812Y-62676376D01*
X118653512Y-62706073D01*
X118628742Y-62711000D01*
X118451258Y-62711000D01*
X118426488Y-62706073D01*
X118277188Y-62676376D01*
X118113216Y-62608456D01*
X117965646Y-62509853D01*
X117840147Y-62384354D01*
X117741544Y-62236784D01*
X117673624Y-62072812D01*
X117639000Y-61898741D01*
X117639000Y-61721259D01*
X117673624Y-61547188D01*
X117741544Y-61383216D01*
X117840147Y-61235646D01*
X117965646Y-61110147D01*
X118113216Y-61011544D01*
X118277188Y-60943624D01*
X118426488Y-60913927D01*
X118451258Y-60909000D01*
X118628742Y-60909000D01*
X118653512Y-60913927D01*
G37*
G36*
X163053512Y-60893927D02*
G01*
X163202812Y-60923624D01*
X163366784Y-60991544D01*
X163514354Y-61090147D01*
X163639853Y-61215646D01*
X163738456Y-61363216D01*
X163806376Y-61527188D01*
X163841000Y-61701259D01*
X163841000Y-61878741D01*
X163806376Y-62052812D01*
X163738456Y-62216784D01*
X163639853Y-62364354D01*
X163514354Y-62489853D01*
X163366784Y-62588456D01*
X163202812Y-62656376D01*
X163053512Y-62686073D01*
X163028742Y-62691000D01*
X162851258Y-62691000D01*
X162826488Y-62686073D01*
X162677188Y-62656376D01*
X162513216Y-62588456D01*
X162365646Y-62489853D01*
X162240147Y-62364354D01*
X162141544Y-62216784D01*
X162073624Y-62052812D01*
X162039000Y-61878741D01*
X162039000Y-61701259D01*
X162073624Y-61527188D01*
X162141544Y-61363216D01*
X162240147Y-61215646D01*
X162365646Y-61090147D01*
X162513216Y-60991544D01*
X162677188Y-60923624D01*
X162826488Y-60893927D01*
X162851258Y-60889000D01*
X163028742Y-60889000D01*
X163053512Y-60893927D01*
G37*
G36*
X166381000Y-62691000D02*
G01*
X164579000Y-62691000D01*
X164579000Y-60889000D01*
X166381000Y-60889000D01*
X166381000Y-62691000D01*
G37*
G36*
X118653512Y-58373927D02*
G01*
X118802812Y-58403624D01*
X118966784Y-58471544D01*
X119114354Y-58570147D01*
X119239853Y-58695646D01*
X119338456Y-58843216D01*
X119406376Y-59007188D01*
X119441000Y-59181259D01*
X119441000Y-59358741D01*
X119406376Y-59532812D01*
X119338456Y-59696784D01*
X119239853Y-59844354D01*
X119114354Y-59969853D01*
X118966784Y-60068456D01*
X118802812Y-60136376D01*
X118653512Y-60166073D01*
X118628742Y-60171000D01*
X118451258Y-60171000D01*
X118426488Y-60166073D01*
X118277188Y-60136376D01*
X118113216Y-60068456D01*
X117965646Y-59969853D01*
X117840147Y-59844354D01*
X117741544Y-59696784D01*
X117673624Y-59532812D01*
X117639000Y-59358741D01*
X117639000Y-59181259D01*
X117673624Y-59007188D01*
X117741544Y-58843216D01*
X117840147Y-58695646D01*
X117965646Y-58570147D01*
X118113216Y-58471544D01*
X118277188Y-58403624D01*
X118426488Y-58373927D01*
X118451258Y-58369000D01*
X118628742Y-58369000D01*
X118653512Y-58373927D01*
G37*
G36*
X121193512Y-58373927D02*
G01*
X121342812Y-58403624D01*
X121506784Y-58471544D01*
X121654354Y-58570147D01*
X121779853Y-58695646D01*
X121878456Y-58843216D01*
X121946376Y-59007188D01*
X121981000Y-59181259D01*
X121981000Y-59358741D01*
X121946376Y-59532812D01*
X121878456Y-59696784D01*
X121779853Y-59844354D01*
X121654354Y-59969853D01*
X121506784Y-60068456D01*
X121342812Y-60136376D01*
X121193512Y-60166073D01*
X121168742Y-60171000D01*
X120991258Y-60171000D01*
X120966488Y-60166073D01*
X120817188Y-60136376D01*
X120653216Y-60068456D01*
X120505646Y-59969853D01*
X120380147Y-59844354D01*
X120281544Y-59696784D01*
X120213624Y-59532812D01*
X120179000Y-59358741D01*
X120179000Y-59181259D01*
X120213624Y-59007188D01*
X120281544Y-58843216D01*
X120380147Y-58695646D01*
X120505646Y-58570147D01*
X120653216Y-58471544D01*
X120817188Y-58403624D01*
X120966488Y-58373927D01*
X120991258Y-58369000D01*
X121168742Y-58369000D01*
X121193512Y-58373927D01*
G37*
G36*
X163053512Y-58353927D02*
G01*
X163202812Y-58383624D01*
X163366784Y-58451544D01*
X163514354Y-58550147D01*
X163639853Y-58675646D01*
X163738456Y-58823216D01*
X163806376Y-58987188D01*
X163841000Y-59161259D01*
X163841000Y-59338741D01*
X163806376Y-59512812D01*
X163738456Y-59676784D01*
X163639853Y-59824354D01*
X163514354Y-59949853D01*
X163366784Y-60048456D01*
X163202812Y-60116376D01*
X163053512Y-60146073D01*
X163028742Y-60151000D01*
X162851258Y-60151000D01*
X162826488Y-60146073D01*
X162677188Y-60116376D01*
X162513216Y-60048456D01*
X162365646Y-59949853D01*
X162240147Y-59824354D01*
X162141544Y-59676784D01*
X162073624Y-59512812D01*
X162039000Y-59338741D01*
X162039000Y-59161259D01*
X162073624Y-58987188D01*
X162141544Y-58823216D01*
X162240147Y-58675646D01*
X162365646Y-58550147D01*
X162513216Y-58451544D01*
X162677188Y-58383624D01*
X162826488Y-58353927D01*
X162851258Y-58349000D01*
X163028742Y-58349000D01*
X163053512Y-58353927D01*
G37*
G36*
X165593512Y-58353927D02*
G01*
X165742812Y-58383624D01*
X165906784Y-58451544D01*
X166054354Y-58550147D01*
X166179853Y-58675646D01*
X166278456Y-58823216D01*
X166346376Y-58987188D01*
X166381000Y-59161259D01*
X166381000Y-59338741D01*
X166346376Y-59512812D01*
X166278456Y-59676784D01*
X166179853Y-59824354D01*
X166054354Y-59949853D01*
X165906784Y-60048456D01*
X165742812Y-60116376D01*
X165593512Y-60146073D01*
X165568742Y-60151000D01*
X165391258Y-60151000D01*
X165366488Y-60146073D01*
X165217188Y-60116376D01*
X165053216Y-60048456D01*
X164905646Y-59949853D01*
X164780147Y-59824354D01*
X164681544Y-59676784D01*
X164613624Y-59512812D01*
X164579000Y-59338741D01*
X164579000Y-59161259D01*
X164613624Y-58987188D01*
X164681544Y-58823216D01*
X164780147Y-58675646D01*
X164905646Y-58550147D01*
X165053216Y-58451544D01*
X165217188Y-58383624D01*
X165366488Y-58353927D01*
X165391258Y-58349000D01*
X165568742Y-58349000D01*
X165593512Y-58353927D01*
G37*
M02*
