G04 #@! TF.GenerationSoftware,KiCad,Pcbnew,5.1.5-52549c5~84~ubuntu18.04.1*
G04 #@! TF.CreationDate,2020-03-09T20:57:05+05:30*
G04 #@! TF.ProjectId,esdm,6573646d-2e6b-4696-9361-645f70636258,rev?*
G04 #@! TF.SameCoordinates,Original*
G04 #@! TF.FileFunction,Paste,Top*
G04 #@! TF.FilePolarity,Positive*
%FSLAX46Y46*%
G04 Gerber Fmt 4.6, Leading zero omitted, Abs format (unit mm)*
G04 Created by KiCad (PCBNEW 5.1.5-52549c5~84~ubuntu18.04.1) date 2020-03-09 20:57:05*
%MOMM*%
%LPD*%
G04 APERTURE LIST*
%ADD10C,0.100000*%
%ADD11R,3.800000X2.000000*%
%ADD12R,1.500000X2.000000*%
G04 APERTURE END LIST*
D10*
G36*
X142904505Y-67321204D02*
G01*
X142928773Y-67324804D01*
X142952572Y-67330765D01*
X142975671Y-67339030D01*
X142997850Y-67349520D01*
X143018893Y-67362132D01*
X143038599Y-67376747D01*
X143056777Y-67393223D01*
X143073253Y-67411401D01*
X143087868Y-67431107D01*
X143100480Y-67452150D01*
X143110970Y-67474329D01*
X143119235Y-67497428D01*
X143125196Y-67521227D01*
X143128796Y-67545495D01*
X143130000Y-67569999D01*
X143130000Y-68220001D01*
X143128796Y-68244505D01*
X143125196Y-68268773D01*
X143119235Y-68292572D01*
X143110970Y-68315671D01*
X143100480Y-68337850D01*
X143087868Y-68358893D01*
X143073253Y-68378599D01*
X143056777Y-68396777D01*
X143038599Y-68413253D01*
X143018893Y-68427868D01*
X142997850Y-68440480D01*
X142975671Y-68450970D01*
X142952572Y-68459235D01*
X142928773Y-68465196D01*
X142904505Y-68468796D01*
X142880001Y-68470000D01*
X141979999Y-68470000D01*
X141955495Y-68468796D01*
X141931227Y-68465196D01*
X141907428Y-68459235D01*
X141884329Y-68450970D01*
X141862150Y-68440480D01*
X141841107Y-68427868D01*
X141821401Y-68413253D01*
X141803223Y-68396777D01*
X141786747Y-68378599D01*
X141772132Y-68358893D01*
X141759520Y-68337850D01*
X141749030Y-68315671D01*
X141740765Y-68292572D01*
X141734804Y-68268773D01*
X141731204Y-68244505D01*
X141730000Y-68220001D01*
X141730000Y-67569999D01*
X141731204Y-67545495D01*
X141734804Y-67521227D01*
X141740765Y-67497428D01*
X141749030Y-67474329D01*
X141759520Y-67452150D01*
X141772132Y-67431107D01*
X141786747Y-67411401D01*
X141803223Y-67393223D01*
X141821401Y-67376747D01*
X141841107Y-67362132D01*
X141862150Y-67349520D01*
X141884329Y-67339030D01*
X141907428Y-67330765D01*
X141931227Y-67324804D01*
X141955495Y-67321204D01*
X141979999Y-67320000D01*
X142880001Y-67320000D01*
X142904505Y-67321204D01*
G37*
G36*
X142904505Y-69371204D02*
G01*
X142928773Y-69374804D01*
X142952572Y-69380765D01*
X142975671Y-69389030D01*
X142997850Y-69399520D01*
X143018893Y-69412132D01*
X143038599Y-69426747D01*
X143056777Y-69443223D01*
X143073253Y-69461401D01*
X143087868Y-69481107D01*
X143100480Y-69502150D01*
X143110970Y-69524329D01*
X143119235Y-69547428D01*
X143125196Y-69571227D01*
X143128796Y-69595495D01*
X143130000Y-69619999D01*
X143130000Y-70270001D01*
X143128796Y-70294505D01*
X143125196Y-70318773D01*
X143119235Y-70342572D01*
X143110970Y-70365671D01*
X143100480Y-70387850D01*
X143087868Y-70408893D01*
X143073253Y-70428599D01*
X143056777Y-70446777D01*
X143038599Y-70463253D01*
X143018893Y-70477868D01*
X142997850Y-70490480D01*
X142975671Y-70500970D01*
X142952572Y-70509235D01*
X142928773Y-70515196D01*
X142904505Y-70518796D01*
X142880001Y-70520000D01*
X141979999Y-70520000D01*
X141955495Y-70518796D01*
X141931227Y-70515196D01*
X141907428Y-70509235D01*
X141884329Y-70500970D01*
X141862150Y-70490480D01*
X141841107Y-70477868D01*
X141821401Y-70463253D01*
X141803223Y-70446777D01*
X141786747Y-70428599D01*
X141772132Y-70408893D01*
X141759520Y-70387850D01*
X141749030Y-70365671D01*
X141740765Y-70342572D01*
X141734804Y-70318773D01*
X141731204Y-70294505D01*
X141730000Y-70270001D01*
X141730000Y-69619999D01*
X141731204Y-69595495D01*
X141734804Y-69571227D01*
X141740765Y-69547428D01*
X141749030Y-69524329D01*
X141759520Y-69502150D01*
X141772132Y-69481107D01*
X141786747Y-69461401D01*
X141803223Y-69443223D01*
X141821401Y-69426747D01*
X141841107Y-69412132D01*
X141862150Y-69399520D01*
X141884329Y-69389030D01*
X141907428Y-69380765D01*
X141931227Y-69374804D01*
X141955495Y-69371204D01*
X141979999Y-69370000D01*
X142880001Y-69370000D01*
X142904505Y-69371204D01*
G37*
D11*
X159160000Y-74720000D03*
D12*
X159160000Y-68420000D03*
X156860000Y-68420000D03*
X161460000Y-68420000D03*
D10*
G36*
X150844505Y-67071204D02*
G01*
X150868773Y-67074804D01*
X150892572Y-67080765D01*
X150915671Y-67089030D01*
X150937850Y-67099520D01*
X150958893Y-67112132D01*
X150978599Y-67126747D01*
X150996777Y-67143223D01*
X151013253Y-67161401D01*
X151027868Y-67181107D01*
X151040480Y-67202150D01*
X151050970Y-67224329D01*
X151059235Y-67247428D01*
X151065196Y-67271227D01*
X151068796Y-67295495D01*
X151070000Y-67319999D01*
X151070000Y-67970001D01*
X151068796Y-67994505D01*
X151065196Y-68018773D01*
X151059235Y-68042572D01*
X151050970Y-68065671D01*
X151040480Y-68087850D01*
X151027868Y-68108893D01*
X151013253Y-68128599D01*
X150996777Y-68146777D01*
X150978599Y-68163253D01*
X150958893Y-68177868D01*
X150937850Y-68190480D01*
X150915671Y-68200970D01*
X150892572Y-68209235D01*
X150868773Y-68215196D01*
X150844505Y-68218796D01*
X150820001Y-68220000D01*
X149919999Y-68220000D01*
X149895495Y-68218796D01*
X149871227Y-68215196D01*
X149847428Y-68209235D01*
X149824329Y-68200970D01*
X149802150Y-68190480D01*
X149781107Y-68177868D01*
X149761401Y-68163253D01*
X149743223Y-68146777D01*
X149726747Y-68128599D01*
X149712132Y-68108893D01*
X149699520Y-68087850D01*
X149689030Y-68065671D01*
X149680765Y-68042572D01*
X149674804Y-68018773D01*
X149671204Y-67994505D01*
X149670000Y-67970001D01*
X149670000Y-67319999D01*
X149671204Y-67295495D01*
X149674804Y-67271227D01*
X149680765Y-67247428D01*
X149689030Y-67224329D01*
X149699520Y-67202150D01*
X149712132Y-67181107D01*
X149726747Y-67161401D01*
X149743223Y-67143223D01*
X149761401Y-67126747D01*
X149781107Y-67112132D01*
X149802150Y-67099520D01*
X149824329Y-67089030D01*
X149847428Y-67080765D01*
X149871227Y-67074804D01*
X149895495Y-67071204D01*
X149919999Y-67070000D01*
X150820001Y-67070000D01*
X150844505Y-67071204D01*
G37*
G36*
X150844505Y-69121204D02*
G01*
X150868773Y-69124804D01*
X150892572Y-69130765D01*
X150915671Y-69139030D01*
X150937850Y-69149520D01*
X150958893Y-69162132D01*
X150978599Y-69176747D01*
X150996777Y-69193223D01*
X151013253Y-69211401D01*
X151027868Y-69231107D01*
X151040480Y-69252150D01*
X151050970Y-69274329D01*
X151059235Y-69297428D01*
X151065196Y-69321227D01*
X151068796Y-69345495D01*
X151070000Y-69369999D01*
X151070000Y-70020001D01*
X151068796Y-70044505D01*
X151065196Y-70068773D01*
X151059235Y-70092572D01*
X151050970Y-70115671D01*
X151040480Y-70137850D01*
X151027868Y-70158893D01*
X151013253Y-70178599D01*
X150996777Y-70196777D01*
X150978599Y-70213253D01*
X150958893Y-70227868D01*
X150937850Y-70240480D01*
X150915671Y-70250970D01*
X150892572Y-70259235D01*
X150868773Y-70265196D01*
X150844505Y-70268796D01*
X150820001Y-70270000D01*
X149919999Y-70270000D01*
X149895495Y-70268796D01*
X149871227Y-70265196D01*
X149847428Y-70259235D01*
X149824329Y-70250970D01*
X149802150Y-70240480D01*
X149781107Y-70227868D01*
X149761401Y-70213253D01*
X149743223Y-70196777D01*
X149726747Y-70178599D01*
X149712132Y-70158893D01*
X149699520Y-70137850D01*
X149689030Y-70115671D01*
X149680765Y-70092572D01*
X149674804Y-70068773D01*
X149671204Y-70044505D01*
X149670000Y-70020001D01*
X149670000Y-69369999D01*
X149671204Y-69345495D01*
X149674804Y-69321227D01*
X149680765Y-69297428D01*
X149689030Y-69274329D01*
X149699520Y-69252150D01*
X149712132Y-69231107D01*
X149726747Y-69211401D01*
X149743223Y-69193223D01*
X149761401Y-69176747D01*
X149781107Y-69162132D01*
X149802150Y-69149520D01*
X149824329Y-69139030D01*
X149847428Y-69130765D01*
X149871227Y-69124804D01*
X149895495Y-69121204D01*
X149919999Y-69120000D01*
X150820001Y-69120000D01*
X150844505Y-69121204D01*
G37*
G36*
X153614505Y-69051204D02*
G01*
X153638773Y-69054804D01*
X153662572Y-69060765D01*
X153685671Y-69069030D01*
X153707850Y-69079520D01*
X153728893Y-69092132D01*
X153748599Y-69106747D01*
X153766777Y-69123223D01*
X153783253Y-69141401D01*
X153797868Y-69161107D01*
X153810480Y-69182150D01*
X153820970Y-69204329D01*
X153829235Y-69227428D01*
X153835196Y-69251227D01*
X153838796Y-69275495D01*
X153840000Y-69299999D01*
X153840000Y-69950001D01*
X153838796Y-69974505D01*
X153835196Y-69998773D01*
X153829235Y-70022572D01*
X153820970Y-70045671D01*
X153810480Y-70067850D01*
X153797868Y-70088893D01*
X153783253Y-70108599D01*
X153766777Y-70126777D01*
X153748599Y-70143253D01*
X153728893Y-70157868D01*
X153707850Y-70170480D01*
X153685671Y-70180970D01*
X153662572Y-70189235D01*
X153638773Y-70195196D01*
X153614505Y-70198796D01*
X153590001Y-70200000D01*
X152689999Y-70200000D01*
X152665495Y-70198796D01*
X152641227Y-70195196D01*
X152617428Y-70189235D01*
X152594329Y-70180970D01*
X152572150Y-70170480D01*
X152551107Y-70157868D01*
X152531401Y-70143253D01*
X152513223Y-70126777D01*
X152496747Y-70108599D01*
X152482132Y-70088893D01*
X152469520Y-70067850D01*
X152459030Y-70045671D01*
X152450765Y-70022572D01*
X152444804Y-69998773D01*
X152441204Y-69974505D01*
X152440000Y-69950001D01*
X152440000Y-69299999D01*
X152441204Y-69275495D01*
X152444804Y-69251227D01*
X152450765Y-69227428D01*
X152459030Y-69204329D01*
X152469520Y-69182150D01*
X152482132Y-69161107D01*
X152496747Y-69141401D01*
X152513223Y-69123223D01*
X152531401Y-69106747D01*
X152551107Y-69092132D01*
X152572150Y-69079520D01*
X152594329Y-69069030D01*
X152617428Y-69060765D01*
X152641227Y-69054804D01*
X152665495Y-69051204D01*
X152689999Y-69050000D01*
X153590001Y-69050000D01*
X153614505Y-69051204D01*
G37*
G36*
X153614505Y-67001204D02*
G01*
X153638773Y-67004804D01*
X153662572Y-67010765D01*
X153685671Y-67019030D01*
X153707850Y-67029520D01*
X153728893Y-67042132D01*
X153748599Y-67056747D01*
X153766777Y-67073223D01*
X153783253Y-67091401D01*
X153797868Y-67111107D01*
X153810480Y-67132150D01*
X153820970Y-67154329D01*
X153829235Y-67177428D01*
X153835196Y-67201227D01*
X153838796Y-67225495D01*
X153840000Y-67249999D01*
X153840000Y-67900001D01*
X153838796Y-67924505D01*
X153835196Y-67948773D01*
X153829235Y-67972572D01*
X153820970Y-67995671D01*
X153810480Y-68017850D01*
X153797868Y-68038893D01*
X153783253Y-68058599D01*
X153766777Y-68076777D01*
X153748599Y-68093253D01*
X153728893Y-68107868D01*
X153707850Y-68120480D01*
X153685671Y-68130970D01*
X153662572Y-68139235D01*
X153638773Y-68145196D01*
X153614505Y-68148796D01*
X153590001Y-68150000D01*
X152689999Y-68150000D01*
X152665495Y-68148796D01*
X152641227Y-68145196D01*
X152617428Y-68139235D01*
X152594329Y-68130970D01*
X152572150Y-68120480D01*
X152551107Y-68107868D01*
X152531401Y-68093253D01*
X152513223Y-68076777D01*
X152496747Y-68058599D01*
X152482132Y-68038893D01*
X152469520Y-68017850D01*
X152459030Y-67995671D01*
X152450765Y-67972572D01*
X152444804Y-67948773D01*
X152441204Y-67924505D01*
X152440000Y-67900001D01*
X152440000Y-67249999D01*
X152441204Y-67225495D01*
X152444804Y-67201227D01*
X152450765Y-67177428D01*
X152459030Y-67154329D01*
X152469520Y-67132150D01*
X152482132Y-67111107D01*
X152496747Y-67091401D01*
X152513223Y-67073223D01*
X152531401Y-67056747D01*
X152551107Y-67042132D01*
X152572150Y-67029520D01*
X152594329Y-67019030D01*
X152617428Y-67010765D01*
X152641227Y-67004804D01*
X152665495Y-67001204D01*
X152689999Y-67000000D01*
X153590001Y-67000000D01*
X153614505Y-67001204D01*
G37*
G36*
X163284505Y-65161204D02*
G01*
X163308773Y-65164804D01*
X163332572Y-65170765D01*
X163355671Y-65179030D01*
X163377850Y-65189520D01*
X163398893Y-65202132D01*
X163418599Y-65216747D01*
X163436777Y-65233223D01*
X163453253Y-65251401D01*
X163467868Y-65271107D01*
X163480480Y-65292150D01*
X163490970Y-65314329D01*
X163499235Y-65337428D01*
X163505196Y-65361227D01*
X163508796Y-65385495D01*
X163510000Y-65409999D01*
X163510000Y-66310001D01*
X163508796Y-66334505D01*
X163505196Y-66358773D01*
X163499235Y-66382572D01*
X163490970Y-66405671D01*
X163480480Y-66427850D01*
X163467868Y-66448893D01*
X163453253Y-66468599D01*
X163436777Y-66486777D01*
X163418599Y-66503253D01*
X163398893Y-66517868D01*
X163377850Y-66530480D01*
X163355671Y-66540970D01*
X163332572Y-66549235D01*
X163308773Y-66555196D01*
X163284505Y-66558796D01*
X163260001Y-66560000D01*
X162609999Y-66560000D01*
X162585495Y-66558796D01*
X162561227Y-66555196D01*
X162537428Y-66549235D01*
X162514329Y-66540970D01*
X162492150Y-66530480D01*
X162471107Y-66517868D01*
X162451401Y-66503253D01*
X162433223Y-66486777D01*
X162416747Y-66468599D01*
X162402132Y-66448893D01*
X162389520Y-66427850D01*
X162379030Y-66405671D01*
X162370765Y-66382572D01*
X162364804Y-66358773D01*
X162361204Y-66334505D01*
X162360000Y-66310001D01*
X162360000Y-65409999D01*
X162361204Y-65385495D01*
X162364804Y-65361227D01*
X162370765Y-65337428D01*
X162379030Y-65314329D01*
X162389520Y-65292150D01*
X162402132Y-65271107D01*
X162416747Y-65251401D01*
X162433223Y-65233223D01*
X162451401Y-65216747D01*
X162471107Y-65202132D01*
X162492150Y-65189520D01*
X162514329Y-65179030D01*
X162537428Y-65170765D01*
X162561227Y-65164804D01*
X162585495Y-65161204D01*
X162609999Y-65160000D01*
X163260001Y-65160000D01*
X163284505Y-65161204D01*
G37*
G36*
X165334505Y-65161204D02*
G01*
X165358773Y-65164804D01*
X165382572Y-65170765D01*
X165405671Y-65179030D01*
X165427850Y-65189520D01*
X165448893Y-65202132D01*
X165468599Y-65216747D01*
X165486777Y-65233223D01*
X165503253Y-65251401D01*
X165517868Y-65271107D01*
X165530480Y-65292150D01*
X165540970Y-65314329D01*
X165549235Y-65337428D01*
X165555196Y-65361227D01*
X165558796Y-65385495D01*
X165560000Y-65409999D01*
X165560000Y-66310001D01*
X165558796Y-66334505D01*
X165555196Y-66358773D01*
X165549235Y-66382572D01*
X165540970Y-66405671D01*
X165530480Y-66427850D01*
X165517868Y-66448893D01*
X165503253Y-66468599D01*
X165486777Y-66486777D01*
X165468599Y-66503253D01*
X165448893Y-66517868D01*
X165427850Y-66530480D01*
X165405671Y-66540970D01*
X165382572Y-66549235D01*
X165358773Y-66555196D01*
X165334505Y-66558796D01*
X165310001Y-66560000D01*
X164659999Y-66560000D01*
X164635495Y-66558796D01*
X164611227Y-66555196D01*
X164587428Y-66549235D01*
X164564329Y-66540970D01*
X164542150Y-66530480D01*
X164521107Y-66517868D01*
X164501401Y-66503253D01*
X164483223Y-66486777D01*
X164466747Y-66468599D01*
X164452132Y-66448893D01*
X164439520Y-66427850D01*
X164429030Y-66405671D01*
X164420765Y-66382572D01*
X164414804Y-66358773D01*
X164411204Y-66334505D01*
X164410000Y-66310001D01*
X164410000Y-65409999D01*
X164411204Y-65385495D01*
X164414804Y-65361227D01*
X164420765Y-65337428D01*
X164429030Y-65314329D01*
X164439520Y-65292150D01*
X164452132Y-65271107D01*
X164466747Y-65251401D01*
X164483223Y-65233223D01*
X164501401Y-65216747D01*
X164521107Y-65202132D01*
X164542150Y-65189520D01*
X164564329Y-65179030D01*
X164587428Y-65170765D01*
X164611227Y-65164804D01*
X164635495Y-65161204D01*
X164659999Y-65160000D01*
X165310001Y-65160000D01*
X165334505Y-65161204D01*
G37*
G36*
X142784505Y-71901204D02*
G01*
X142808773Y-71904804D01*
X142832572Y-71910765D01*
X142855671Y-71919030D01*
X142877850Y-71929520D01*
X142898893Y-71942132D01*
X142918599Y-71956747D01*
X142936777Y-71973223D01*
X142953253Y-71991401D01*
X142967868Y-72011107D01*
X142980480Y-72032150D01*
X142990970Y-72054329D01*
X142999235Y-72077428D01*
X143005196Y-72101227D01*
X143008796Y-72125495D01*
X143010000Y-72149999D01*
X143010000Y-73050001D01*
X143008796Y-73074505D01*
X143005196Y-73098773D01*
X142999235Y-73122572D01*
X142990970Y-73145671D01*
X142980480Y-73167850D01*
X142967868Y-73188893D01*
X142953253Y-73208599D01*
X142936777Y-73226777D01*
X142918599Y-73243253D01*
X142898893Y-73257868D01*
X142877850Y-73270480D01*
X142855671Y-73280970D01*
X142832572Y-73289235D01*
X142808773Y-73295196D01*
X142784505Y-73298796D01*
X142760001Y-73300000D01*
X142109999Y-73300000D01*
X142085495Y-73298796D01*
X142061227Y-73295196D01*
X142037428Y-73289235D01*
X142014329Y-73280970D01*
X141992150Y-73270480D01*
X141971107Y-73257868D01*
X141951401Y-73243253D01*
X141933223Y-73226777D01*
X141916747Y-73208599D01*
X141902132Y-73188893D01*
X141889520Y-73167850D01*
X141879030Y-73145671D01*
X141870765Y-73122572D01*
X141864804Y-73098773D01*
X141861204Y-73074505D01*
X141860000Y-73050001D01*
X141860000Y-72149999D01*
X141861204Y-72125495D01*
X141864804Y-72101227D01*
X141870765Y-72077428D01*
X141879030Y-72054329D01*
X141889520Y-72032150D01*
X141902132Y-72011107D01*
X141916747Y-71991401D01*
X141933223Y-71973223D01*
X141951401Y-71956747D01*
X141971107Y-71942132D01*
X141992150Y-71929520D01*
X142014329Y-71919030D01*
X142037428Y-71910765D01*
X142061227Y-71904804D01*
X142085495Y-71901204D01*
X142109999Y-71900000D01*
X142760001Y-71900000D01*
X142784505Y-71901204D01*
G37*
G36*
X144834505Y-71901204D02*
G01*
X144858773Y-71904804D01*
X144882572Y-71910765D01*
X144905671Y-71919030D01*
X144927850Y-71929520D01*
X144948893Y-71942132D01*
X144968599Y-71956747D01*
X144986777Y-71973223D01*
X145003253Y-71991401D01*
X145017868Y-72011107D01*
X145030480Y-72032150D01*
X145040970Y-72054329D01*
X145049235Y-72077428D01*
X145055196Y-72101227D01*
X145058796Y-72125495D01*
X145060000Y-72149999D01*
X145060000Y-73050001D01*
X145058796Y-73074505D01*
X145055196Y-73098773D01*
X145049235Y-73122572D01*
X145040970Y-73145671D01*
X145030480Y-73167850D01*
X145017868Y-73188893D01*
X145003253Y-73208599D01*
X144986777Y-73226777D01*
X144968599Y-73243253D01*
X144948893Y-73257868D01*
X144927850Y-73270480D01*
X144905671Y-73280970D01*
X144882572Y-73289235D01*
X144858773Y-73295196D01*
X144834505Y-73298796D01*
X144810001Y-73300000D01*
X144159999Y-73300000D01*
X144135495Y-73298796D01*
X144111227Y-73295196D01*
X144087428Y-73289235D01*
X144064329Y-73280970D01*
X144042150Y-73270480D01*
X144021107Y-73257868D01*
X144001401Y-73243253D01*
X143983223Y-73226777D01*
X143966747Y-73208599D01*
X143952132Y-73188893D01*
X143939520Y-73167850D01*
X143929030Y-73145671D01*
X143920765Y-73122572D01*
X143914804Y-73098773D01*
X143911204Y-73074505D01*
X143910000Y-73050001D01*
X143910000Y-72149999D01*
X143911204Y-72125495D01*
X143914804Y-72101227D01*
X143920765Y-72077428D01*
X143929030Y-72054329D01*
X143939520Y-72032150D01*
X143952132Y-72011107D01*
X143966747Y-71991401D01*
X143983223Y-71973223D01*
X144001401Y-71956747D01*
X144021107Y-71942132D01*
X144042150Y-71929520D01*
X144064329Y-71919030D01*
X144087428Y-71910765D01*
X144111227Y-71904804D01*
X144135495Y-71901204D01*
X144159999Y-71900000D01*
X144810001Y-71900000D01*
X144834505Y-71901204D01*
G37*
D12*
X139500000Y-68110000D03*
X134900000Y-68110000D03*
X137200000Y-68110000D03*
D11*
X137200000Y-74410000D03*
M02*
