G04 #@! TF.GenerationSoftware,KiCad,Pcbnew,5.1.5-52549c5~84~ubuntu18.04.1*
G04 #@! TF.CreationDate,2020-03-09T20:57:05+05:30*
G04 #@! TF.ProjectId,esdm,6573646d-2e6b-4696-9361-645f70636258,rev?*
G04 #@! TF.SameCoordinates,Original*
G04 #@! TF.FileFunction,Legend,Top*
G04 #@! TF.FilePolarity,Positive*
%FSLAX46Y46*%
G04 Gerber Fmt 4.6, Leading zero omitted, Abs format (unit mm)*
G04 Created by KiCad (PCBNEW 5.1.5-52549c5~84~ubuntu18.04.1) date 2020-03-09 20:57:05*
%MOMM*%
%LPD*%
G04 APERTURE LIST*
%ADD10C,0.120000*%
%ADD11C,0.150000*%
G04 APERTURE END LIST*
D10*
X124580000Y-76950000D02*
X115580000Y-76950000D01*
X115580000Y-76950000D02*
X115580000Y-67750000D01*
X115580000Y-67750000D02*
X130180000Y-67750000D01*
X130180000Y-67750000D02*
X130180000Y-70550000D01*
X130180000Y-74150000D02*
X130180000Y-76950000D01*
X130180000Y-76950000D02*
X128180000Y-76950000D01*
X128680000Y-67510000D02*
X130420000Y-67510000D01*
X130420000Y-67510000D02*
X130420000Y-69250000D01*
X143140000Y-69181252D02*
X143140000Y-68658748D01*
X141720000Y-69181252D02*
X141720000Y-68658748D01*
X147488608Y-70352335D02*
G75*
G03X147645516Y-67120000I-1078608J1672335D01*
G01*
X145331392Y-70352335D02*
G75*
G02X145174484Y-67120000I1078608J1672335D01*
G01*
X147489837Y-69721130D02*
G75*
G03X147490000Y-67639039I-1079837J1041130D01*
G01*
X145330163Y-69721130D02*
G75*
G02X145330000Y-67639039I1079837J1041130D01*
G01*
X147646000Y-67120000D02*
X147490000Y-67120000D01*
X145330000Y-67120000D02*
X145174000Y-67120000D01*
X155750000Y-73480000D02*
X157010000Y-73480000D01*
X162570000Y-73480000D02*
X161310000Y-73480000D01*
X155750000Y-69720000D02*
X155750000Y-73480000D01*
X162570000Y-67470000D02*
X162570000Y-73480000D01*
X151080000Y-68931252D02*
X151080000Y-68408748D01*
X149660000Y-68931252D02*
X149660000Y-68408748D01*
X152430000Y-68861252D02*
X152430000Y-68338748D01*
X153850000Y-68861252D02*
X153850000Y-68338748D01*
X164221252Y-65150000D02*
X163698748Y-65150000D01*
X164221252Y-66570000D02*
X163698748Y-66570000D01*
X143198748Y-71890000D02*
X143721252Y-71890000D01*
X143198748Y-73310000D02*
X143721252Y-73310000D01*
X140610000Y-67160000D02*
X140610000Y-73170000D01*
X133790000Y-69410000D02*
X133790000Y-73170000D01*
X140610000Y-73170000D02*
X139350000Y-73170000D01*
X133790000Y-73170000D02*
X135050000Y-73170000D01*
D11*
X120596666Y-77552380D02*
X120596666Y-78266666D01*
X120549047Y-78409523D01*
X120453809Y-78504761D01*
X120310952Y-78552380D01*
X120215714Y-78552380D01*
X121596666Y-78552380D02*
X121025238Y-78552380D01*
X121310952Y-78552380D02*
X121310952Y-77552380D01*
X121215714Y-77695238D01*
X121120476Y-77790476D01*
X121025238Y-77838095D01*
X142293333Y-66407142D02*
X142245714Y-66454761D01*
X142102857Y-66502380D01*
X142007619Y-66502380D01*
X141864761Y-66454761D01*
X141769523Y-66359523D01*
X141721904Y-66264285D01*
X141674285Y-66073809D01*
X141674285Y-65930952D01*
X141721904Y-65740476D01*
X141769523Y-65645238D01*
X141864761Y-65550000D01*
X142007619Y-65502380D01*
X142102857Y-65502380D01*
X142245714Y-65550000D01*
X142293333Y-65597619D01*
X143150476Y-65835714D02*
X143150476Y-66502380D01*
X142912380Y-65454761D02*
X142674285Y-66169047D01*
X143293333Y-66169047D01*
X147912380Y-73318095D02*
X146912380Y-73318095D01*
X146912380Y-73080000D01*
X146960000Y-72937142D01*
X147055238Y-72841904D01*
X147150476Y-72794285D01*
X147340952Y-72746666D01*
X147483809Y-72746666D01*
X147674285Y-72794285D01*
X147769523Y-72841904D01*
X147864761Y-72937142D01*
X147912380Y-73080000D01*
X147912380Y-73318095D01*
X147912380Y-71794285D02*
X147912380Y-72365714D01*
X147912380Y-72080000D02*
X146912380Y-72080000D01*
X147055238Y-72175238D01*
X147150476Y-72270476D01*
X147198095Y-72365714D01*
X158338095Y-76672380D02*
X158338095Y-77481904D01*
X158385714Y-77577142D01*
X158433333Y-77624761D01*
X158528571Y-77672380D01*
X158719047Y-77672380D01*
X158814285Y-77624761D01*
X158861904Y-77577142D01*
X158909523Y-77481904D01*
X158909523Y-76672380D01*
X159909523Y-77672380D02*
X159338095Y-77672380D01*
X159623809Y-77672380D02*
X159623809Y-76672380D01*
X159528571Y-76815238D01*
X159433333Y-76910476D01*
X159338095Y-76958095D01*
X167512380Y-62113333D02*
X168226666Y-62113333D01*
X168369523Y-62160952D01*
X168464761Y-62256190D01*
X168512380Y-62399047D01*
X168512380Y-62494285D01*
X167512380Y-61732380D02*
X167512380Y-61113333D01*
X167893333Y-61446666D01*
X167893333Y-61303809D01*
X167940952Y-61208571D01*
X167988571Y-61160952D01*
X168083809Y-61113333D01*
X168321904Y-61113333D01*
X168417142Y-61160952D01*
X168464761Y-61208571D01*
X168512380Y-61303809D01*
X168512380Y-61589523D01*
X168464761Y-61684761D01*
X168417142Y-61732380D01*
X150213333Y-71907142D02*
X150165714Y-71954761D01*
X150022857Y-72002380D01*
X149927619Y-72002380D01*
X149784761Y-71954761D01*
X149689523Y-71859523D01*
X149641904Y-71764285D01*
X149594285Y-71573809D01*
X149594285Y-71430952D01*
X149641904Y-71240476D01*
X149689523Y-71145238D01*
X149784761Y-71050000D01*
X149927619Y-71002380D01*
X150022857Y-71002380D01*
X150165714Y-71050000D01*
X150213333Y-71097619D01*
X151165714Y-72002380D02*
X150594285Y-72002380D01*
X150880000Y-72002380D02*
X150880000Y-71002380D01*
X150784761Y-71145238D01*
X150689523Y-71240476D01*
X150594285Y-71288095D01*
X152983333Y-65877142D02*
X152935714Y-65924761D01*
X152792857Y-65972380D01*
X152697619Y-65972380D01*
X152554761Y-65924761D01*
X152459523Y-65829523D01*
X152411904Y-65734285D01*
X152364285Y-65543809D01*
X152364285Y-65400952D01*
X152411904Y-65210476D01*
X152459523Y-65115238D01*
X152554761Y-65020000D01*
X152697619Y-64972380D01*
X152792857Y-64972380D01*
X152935714Y-65020000D01*
X152983333Y-65067619D01*
X153364285Y-65067619D02*
X153411904Y-65020000D01*
X153507142Y-64972380D01*
X153745238Y-64972380D01*
X153840476Y-65020000D01*
X153888095Y-65067619D01*
X153935714Y-65162857D01*
X153935714Y-65258095D01*
X153888095Y-65400952D01*
X153316666Y-65972380D01*
X153935714Y-65972380D01*
X167397142Y-66076666D02*
X167444761Y-66124285D01*
X167492380Y-66267142D01*
X167492380Y-66362380D01*
X167444761Y-66505238D01*
X167349523Y-66600476D01*
X167254285Y-66648095D01*
X167063809Y-66695714D01*
X166920952Y-66695714D01*
X166730476Y-66648095D01*
X166635238Y-66600476D01*
X166540000Y-66505238D01*
X166492380Y-66362380D01*
X166492380Y-66267142D01*
X166540000Y-66124285D01*
X166587619Y-66076666D01*
X166492380Y-65743333D02*
X166492380Y-65124285D01*
X166873333Y-65457619D01*
X166873333Y-65314761D01*
X166920952Y-65219523D01*
X166968571Y-65171904D01*
X167063809Y-65124285D01*
X167301904Y-65124285D01*
X167397142Y-65171904D01*
X167444761Y-65219523D01*
X167492380Y-65314761D01*
X167492380Y-65600476D01*
X167444761Y-65695714D01*
X167397142Y-65743333D01*
X123812380Y-62153333D02*
X124526666Y-62153333D01*
X124669523Y-62200952D01*
X124764761Y-62296190D01*
X124812380Y-62439047D01*
X124812380Y-62534285D01*
X123907619Y-61724761D02*
X123860000Y-61677142D01*
X123812380Y-61581904D01*
X123812380Y-61343809D01*
X123860000Y-61248571D01*
X123907619Y-61200952D01*
X124002857Y-61153333D01*
X124098095Y-61153333D01*
X124240952Y-61200952D01*
X124812380Y-61772380D01*
X124812380Y-61153333D01*
X143383333Y-74982380D02*
X143050000Y-74506190D01*
X142811904Y-74982380D02*
X142811904Y-73982380D01*
X143192857Y-73982380D01*
X143288095Y-74030000D01*
X143335714Y-74077619D01*
X143383333Y-74172857D01*
X143383333Y-74315714D01*
X143335714Y-74410952D01*
X143288095Y-74458571D01*
X143192857Y-74506190D01*
X142811904Y-74506190D01*
X144335714Y-74982380D02*
X143764285Y-74982380D01*
X144050000Y-74982380D02*
X144050000Y-73982380D01*
X143954761Y-74125238D01*
X143859523Y-74220476D01*
X143764285Y-74268095D01*
X136398095Y-76142380D02*
X136398095Y-76951904D01*
X136445714Y-77047142D01*
X136493333Y-77094761D01*
X136588571Y-77142380D01*
X136779047Y-77142380D01*
X136874285Y-77094761D01*
X136921904Y-77047142D01*
X136969523Y-76951904D01*
X136969523Y-76142380D01*
X137398095Y-76237619D02*
X137445714Y-76190000D01*
X137540952Y-76142380D01*
X137779047Y-76142380D01*
X137874285Y-76190000D01*
X137921904Y-76237619D01*
X137969523Y-76332857D01*
X137969523Y-76428095D01*
X137921904Y-76570952D01*
X137350476Y-77142380D01*
X137969523Y-77142380D01*
M02*
