G04 #@! TF.GenerationSoftware,KiCad,Pcbnew,5.1.5-52549c5~84~ubuntu18.04.1*
G04 #@! TF.CreationDate,2020-03-09T20:57:05+05:30*
G04 #@! TF.ProjectId,esdm,6573646d-2e6b-4696-9361-645f70636258,rev?*
G04 #@! TF.SameCoordinates,Original*
G04 #@! TF.FileFunction,Copper,L1,Top*
G04 #@! TF.FilePolarity,Positive*
%FSLAX46Y46*%
G04 Gerber Fmt 4.6, Leading zero omitted, Abs format (unit mm)*
G04 Created by KiCad (PCBNEW 5.1.5-52549c5~84~ubuntu18.04.1) date 2020-03-09 20:57:05*
%MOMM*%
%LPD*%
G04 APERTURE LIST*
%ADD10R,2.600000X2.600000*%
%ADD11C,2.600000*%
%ADD12C,0.100000*%
%ADD13R,1.800000X1.800000*%
%ADD14C,1.800000*%
%ADD15R,3.800000X2.000000*%
%ADD16R,1.500000X2.000000*%
%ADD17R,1.700000X1.700000*%
%ADD18O,1.700000X1.700000*%
%ADD19C,0.250000*%
%ADD20C,0.254000*%
G04 APERTURE END LIST*
D10*
X129380000Y-72350000D03*
D11*
X123380000Y-72350000D03*
X126380000Y-77050000D03*
G04 #@! TA.AperFunction,SMDPad,CuDef*
D12*
G36*
X142904505Y-67321204D02*
G01*
X142928773Y-67324804D01*
X142952572Y-67330765D01*
X142975671Y-67339030D01*
X142997850Y-67349520D01*
X143018893Y-67362132D01*
X143038599Y-67376747D01*
X143056777Y-67393223D01*
X143073253Y-67411401D01*
X143087868Y-67431107D01*
X143100480Y-67452150D01*
X143110970Y-67474329D01*
X143119235Y-67497428D01*
X143125196Y-67521227D01*
X143128796Y-67545495D01*
X143130000Y-67569999D01*
X143130000Y-68220001D01*
X143128796Y-68244505D01*
X143125196Y-68268773D01*
X143119235Y-68292572D01*
X143110970Y-68315671D01*
X143100480Y-68337850D01*
X143087868Y-68358893D01*
X143073253Y-68378599D01*
X143056777Y-68396777D01*
X143038599Y-68413253D01*
X143018893Y-68427868D01*
X142997850Y-68440480D01*
X142975671Y-68450970D01*
X142952572Y-68459235D01*
X142928773Y-68465196D01*
X142904505Y-68468796D01*
X142880001Y-68470000D01*
X141979999Y-68470000D01*
X141955495Y-68468796D01*
X141931227Y-68465196D01*
X141907428Y-68459235D01*
X141884329Y-68450970D01*
X141862150Y-68440480D01*
X141841107Y-68427868D01*
X141821401Y-68413253D01*
X141803223Y-68396777D01*
X141786747Y-68378599D01*
X141772132Y-68358893D01*
X141759520Y-68337850D01*
X141749030Y-68315671D01*
X141740765Y-68292572D01*
X141734804Y-68268773D01*
X141731204Y-68244505D01*
X141730000Y-68220001D01*
X141730000Y-67569999D01*
X141731204Y-67545495D01*
X141734804Y-67521227D01*
X141740765Y-67497428D01*
X141749030Y-67474329D01*
X141759520Y-67452150D01*
X141772132Y-67431107D01*
X141786747Y-67411401D01*
X141803223Y-67393223D01*
X141821401Y-67376747D01*
X141841107Y-67362132D01*
X141862150Y-67349520D01*
X141884329Y-67339030D01*
X141907428Y-67330765D01*
X141931227Y-67324804D01*
X141955495Y-67321204D01*
X141979999Y-67320000D01*
X142880001Y-67320000D01*
X142904505Y-67321204D01*
G37*
G04 #@! TD.AperFunction*
G04 #@! TA.AperFunction,SMDPad,CuDef*
G36*
X142904505Y-69371204D02*
G01*
X142928773Y-69374804D01*
X142952572Y-69380765D01*
X142975671Y-69389030D01*
X142997850Y-69399520D01*
X143018893Y-69412132D01*
X143038599Y-69426747D01*
X143056777Y-69443223D01*
X143073253Y-69461401D01*
X143087868Y-69481107D01*
X143100480Y-69502150D01*
X143110970Y-69524329D01*
X143119235Y-69547428D01*
X143125196Y-69571227D01*
X143128796Y-69595495D01*
X143130000Y-69619999D01*
X143130000Y-70270001D01*
X143128796Y-70294505D01*
X143125196Y-70318773D01*
X143119235Y-70342572D01*
X143110970Y-70365671D01*
X143100480Y-70387850D01*
X143087868Y-70408893D01*
X143073253Y-70428599D01*
X143056777Y-70446777D01*
X143038599Y-70463253D01*
X143018893Y-70477868D01*
X142997850Y-70490480D01*
X142975671Y-70500970D01*
X142952572Y-70509235D01*
X142928773Y-70515196D01*
X142904505Y-70518796D01*
X142880001Y-70520000D01*
X141979999Y-70520000D01*
X141955495Y-70518796D01*
X141931227Y-70515196D01*
X141907428Y-70509235D01*
X141884329Y-70500970D01*
X141862150Y-70490480D01*
X141841107Y-70477868D01*
X141821401Y-70463253D01*
X141803223Y-70446777D01*
X141786747Y-70428599D01*
X141772132Y-70408893D01*
X141759520Y-70387850D01*
X141749030Y-70365671D01*
X141740765Y-70342572D01*
X141734804Y-70318773D01*
X141731204Y-70294505D01*
X141730000Y-70270001D01*
X141730000Y-69619999D01*
X141731204Y-69595495D01*
X141734804Y-69571227D01*
X141740765Y-69547428D01*
X141749030Y-69524329D01*
X141759520Y-69502150D01*
X141772132Y-69481107D01*
X141786747Y-69461401D01*
X141803223Y-69443223D01*
X141821401Y-69426747D01*
X141841107Y-69412132D01*
X141862150Y-69399520D01*
X141884329Y-69389030D01*
X141907428Y-69380765D01*
X141931227Y-69374804D01*
X141955495Y-69371204D01*
X141979999Y-69370000D01*
X142880001Y-69370000D01*
X142904505Y-69371204D01*
G37*
G04 #@! TD.AperFunction*
D13*
X146410000Y-67410000D03*
D14*
X146410000Y-69950000D03*
D15*
X159160000Y-74720000D03*
D16*
X159160000Y-68420000D03*
X156860000Y-68420000D03*
X161460000Y-68420000D03*
D17*
X165480000Y-61790000D03*
D18*
X165480000Y-59250000D03*
X162940000Y-61790000D03*
X162940000Y-59250000D03*
G04 #@! TA.AperFunction,SMDPad,CuDef*
D12*
G36*
X150844505Y-67071204D02*
G01*
X150868773Y-67074804D01*
X150892572Y-67080765D01*
X150915671Y-67089030D01*
X150937850Y-67099520D01*
X150958893Y-67112132D01*
X150978599Y-67126747D01*
X150996777Y-67143223D01*
X151013253Y-67161401D01*
X151027868Y-67181107D01*
X151040480Y-67202150D01*
X151050970Y-67224329D01*
X151059235Y-67247428D01*
X151065196Y-67271227D01*
X151068796Y-67295495D01*
X151070000Y-67319999D01*
X151070000Y-67970001D01*
X151068796Y-67994505D01*
X151065196Y-68018773D01*
X151059235Y-68042572D01*
X151050970Y-68065671D01*
X151040480Y-68087850D01*
X151027868Y-68108893D01*
X151013253Y-68128599D01*
X150996777Y-68146777D01*
X150978599Y-68163253D01*
X150958893Y-68177868D01*
X150937850Y-68190480D01*
X150915671Y-68200970D01*
X150892572Y-68209235D01*
X150868773Y-68215196D01*
X150844505Y-68218796D01*
X150820001Y-68220000D01*
X149919999Y-68220000D01*
X149895495Y-68218796D01*
X149871227Y-68215196D01*
X149847428Y-68209235D01*
X149824329Y-68200970D01*
X149802150Y-68190480D01*
X149781107Y-68177868D01*
X149761401Y-68163253D01*
X149743223Y-68146777D01*
X149726747Y-68128599D01*
X149712132Y-68108893D01*
X149699520Y-68087850D01*
X149689030Y-68065671D01*
X149680765Y-68042572D01*
X149674804Y-68018773D01*
X149671204Y-67994505D01*
X149670000Y-67970001D01*
X149670000Y-67319999D01*
X149671204Y-67295495D01*
X149674804Y-67271227D01*
X149680765Y-67247428D01*
X149689030Y-67224329D01*
X149699520Y-67202150D01*
X149712132Y-67181107D01*
X149726747Y-67161401D01*
X149743223Y-67143223D01*
X149761401Y-67126747D01*
X149781107Y-67112132D01*
X149802150Y-67099520D01*
X149824329Y-67089030D01*
X149847428Y-67080765D01*
X149871227Y-67074804D01*
X149895495Y-67071204D01*
X149919999Y-67070000D01*
X150820001Y-67070000D01*
X150844505Y-67071204D01*
G37*
G04 #@! TD.AperFunction*
G04 #@! TA.AperFunction,SMDPad,CuDef*
G36*
X150844505Y-69121204D02*
G01*
X150868773Y-69124804D01*
X150892572Y-69130765D01*
X150915671Y-69139030D01*
X150937850Y-69149520D01*
X150958893Y-69162132D01*
X150978599Y-69176747D01*
X150996777Y-69193223D01*
X151013253Y-69211401D01*
X151027868Y-69231107D01*
X151040480Y-69252150D01*
X151050970Y-69274329D01*
X151059235Y-69297428D01*
X151065196Y-69321227D01*
X151068796Y-69345495D01*
X151070000Y-69369999D01*
X151070000Y-70020001D01*
X151068796Y-70044505D01*
X151065196Y-70068773D01*
X151059235Y-70092572D01*
X151050970Y-70115671D01*
X151040480Y-70137850D01*
X151027868Y-70158893D01*
X151013253Y-70178599D01*
X150996777Y-70196777D01*
X150978599Y-70213253D01*
X150958893Y-70227868D01*
X150937850Y-70240480D01*
X150915671Y-70250970D01*
X150892572Y-70259235D01*
X150868773Y-70265196D01*
X150844505Y-70268796D01*
X150820001Y-70270000D01*
X149919999Y-70270000D01*
X149895495Y-70268796D01*
X149871227Y-70265196D01*
X149847428Y-70259235D01*
X149824329Y-70250970D01*
X149802150Y-70240480D01*
X149781107Y-70227868D01*
X149761401Y-70213253D01*
X149743223Y-70196777D01*
X149726747Y-70178599D01*
X149712132Y-70158893D01*
X149699520Y-70137850D01*
X149689030Y-70115671D01*
X149680765Y-70092572D01*
X149674804Y-70068773D01*
X149671204Y-70044505D01*
X149670000Y-70020001D01*
X149670000Y-69369999D01*
X149671204Y-69345495D01*
X149674804Y-69321227D01*
X149680765Y-69297428D01*
X149689030Y-69274329D01*
X149699520Y-69252150D01*
X149712132Y-69231107D01*
X149726747Y-69211401D01*
X149743223Y-69193223D01*
X149761401Y-69176747D01*
X149781107Y-69162132D01*
X149802150Y-69149520D01*
X149824329Y-69139030D01*
X149847428Y-69130765D01*
X149871227Y-69124804D01*
X149895495Y-69121204D01*
X149919999Y-69120000D01*
X150820001Y-69120000D01*
X150844505Y-69121204D01*
G37*
G04 #@! TD.AperFunction*
G04 #@! TA.AperFunction,SMDPad,CuDef*
G36*
X153614505Y-69051204D02*
G01*
X153638773Y-69054804D01*
X153662572Y-69060765D01*
X153685671Y-69069030D01*
X153707850Y-69079520D01*
X153728893Y-69092132D01*
X153748599Y-69106747D01*
X153766777Y-69123223D01*
X153783253Y-69141401D01*
X153797868Y-69161107D01*
X153810480Y-69182150D01*
X153820970Y-69204329D01*
X153829235Y-69227428D01*
X153835196Y-69251227D01*
X153838796Y-69275495D01*
X153840000Y-69299999D01*
X153840000Y-69950001D01*
X153838796Y-69974505D01*
X153835196Y-69998773D01*
X153829235Y-70022572D01*
X153820970Y-70045671D01*
X153810480Y-70067850D01*
X153797868Y-70088893D01*
X153783253Y-70108599D01*
X153766777Y-70126777D01*
X153748599Y-70143253D01*
X153728893Y-70157868D01*
X153707850Y-70170480D01*
X153685671Y-70180970D01*
X153662572Y-70189235D01*
X153638773Y-70195196D01*
X153614505Y-70198796D01*
X153590001Y-70200000D01*
X152689999Y-70200000D01*
X152665495Y-70198796D01*
X152641227Y-70195196D01*
X152617428Y-70189235D01*
X152594329Y-70180970D01*
X152572150Y-70170480D01*
X152551107Y-70157868D01*
X152531401Y-70143253D01*
X152513223Y-70126777D01*
X152496747Y-70108599D01*
X152482132Y-70088893D01*
X152469520Y-70067850D01*
X152459030Y-70045671D01*
X152450765Y-70022572D01*
X152444804Y-69998773D01*
X152441204Y-69974505D01*
X152440000Y-69950001D01*
X152440000Y-69299999D01*
X152441204Y-69275495D01*
X152444804Y-69251227D01*
X152450765Y-69227428D01*
X152459030Y-69204329D01*
X152469520Y-69182150D01*
X152482132Y-69161107D01*
X152496747Y-69141401D01*
X152513223Y-69123223D01*
X152531401Y-69106747D01*
X152551107Y-69092132D01*
X152572150Y-69079520D01*
X152594329Y-69069030D01*
X152617428Y-69060765D01*
X152641227Y-69054804D01*
X152665495Y-69051204D01*
X152689999Y-69050000D01*
X153590001Y-69050000D01*
X153614505Y-69051204D01*
G37*
G04 #@! TD.AperFunction*
G04 #@! TA.AperFunction,SMDPad,CuDef*
G36*
X153614505Y-67001204D02*
G01*
X153638773Y-67004804D01*
X153662572Y-67010765D01*
X153685671Y-67019030D01*
X153707850Y-67029520D01*
X153728893Y-67042132D01*
X153748599Y-67056747D01*
X153766777Y-67073223D01*
X153783253Y-67091401D01*
X153797868Y-67111107D01*
X153810480Y-67132150D01*
X153820970Y-67154329D01*
X153829235Y-67177428D01*
X153835196Y-67201227D01*
X153838796Y-67225495D01*
X153840000Y-67249999D01*
X153840000Y-67900001D01*
X153838796Y-67924505D01*
X153835196Y-67948773D01*
X153829235Y-67972572D01*
X153820970Y-67995671D01*
X153810480Y-68017850D01*
X153797868Y-68038893D01*
X153783253Y-68058599D01*
X153766777Y-68076777D01*
X153748599Y-68093253D01*
X153728893Y-68107868D01*
X153707850Y-68120480D01*
X153685671Y-68130970D01*
X153662572Y-68139235D01*
X153638773Y-68145196D01*
X153614505Y-68148796D01*
X153590001Y-68150000D01*
X152689999Y-68150000D01*
X152665495Y-68148796D01*
X152641227Y-68145196D01*
X152617428Y-68139235D01*
X152594329Y-68130970D01*
X152572150Y-68120480D01*
X152551107Y-68107868D01*
X152531401Y-68093253D01*
X152513223Y-68076777D01*
X152496747Y-68058599D01*
X152482132Y-68038893D01*
X152469520Y-68017850D01*
X152459030Y-67995671D01*
X152450765Y-67972572D01*
X152444804Y-67948773D01*
X152441204Y-67924505D01*
X152440000Y-67900001D01*
X152440000Y-67249999D01*
X152441204Y-67225495D01*
X152444804Y-67201227D01*
X152450765Y-67177428D01*
X152459030Y-67154329D01*
X152469520Y-67132150D01*
X152482132Y-67111107D01*
X152496747Y-67091401D01*
X152513223Y-67073223D01*
X152531401Y-67056747D01*
X152551107Y-67042132D01*
X152572150Y-67029520D01*
X152594329Y-67019030D01*
X152617428Y-67010765D01*
X152641227Y-67004804D01*
X152665495Y-67001204D01*
X152689999Y-67000000D01*
X153590001Y-67000000D01*
X153614505Y-67001204D01*
G37*
G04 #@! TD.AperFunction*
G04 #@! TA.AperFunction,SMDPad,CuDef*
G36*
X163284505Y-65161204D02*
G01*
X163308773Y-65164804D01*
X163332572Y-65170765D01*
X163355671Y-65179030D01*
X163377850Y-65189520D01*
X163398893Y-65202132D01*
X163418599Y-65216747D01*
X163436777Y-65233223D01*
X163453253Y-65251401D01*
X163467868Y-65271107D01*
X163480480Y-65292150D01*
X163490970Y-65314329D01*
X163499235Y-65337428D01*
X163505196Y-65361227D01*
X163508796Y-65385495D01*
X163510000Y-65409999D01*
X163510000Y-66310001D01*
X163508796Y-66334505D01*
X163505196Y-66358773D01*
X163499235Y-66382572D01*
X163490970Y-66405671D01*
X163480480Y-66427850D01*
X163467868Y-66448893D01*
X163453253Y-66468599D01*
X163436777Y-66486777D01*
X163418599Y-66503253D01*
X163398893Y-66517868D01*
X163377850Y-66530480D01*
X163355671Y-66540970D01*
X163332572Y-66549235D01*
X163308773Y-66555196D01*
X163284505Y-66558796D01*
X163260001Y-66560000D01*
X162609999Y-66560000D01*
X162585495Y-66558796D01*
X162561227Y-66555196D01*
X162537428Y-66549235D01*
X162514329Y-66540970D01*
X162492150Y-66530480D01*
X162471107Y-66517868D01*
X162451401Y-66503253D01*
X162433223Y-66486777D01*
X162416747Y-66468599D01*
X162402132Y-66448893D01*
X162389520Y-66427850D01*
X162379030Y-66405671D01*
X162370765Y-66382572D01*
X162364804Y-66358773D01*
X162361204Y-66334505D01*
X162360000Y-66310001D01*
X162360000Y-65409999D01*
X162361204Y-65385495D01*
X162364804Y-65361227D01*
X162370765Y-65337428D01*
X162379030Y-65314329D01*
X162389520Y-65292150D01*
X162402132Y-65271107D01*
X162416747Y-65251401D01*
X162433223Y-65233223D01*
X162451401Y-65216747D01*
X162471107Y-65202132D01*
X162492150Y-65189520D01*
X162514329Y-65179030D01*
X162537428Y-65170765D01*
X162561227Y-65164804D01*
X162585495Y-65161204D01*
X162609999Y-65160000D01*
X163260001Y-65160000D01*
X163284505Y-65161204D01*
G37*
G04 #@! TD.AperFunction*
G04 #@! TA.AperFunction,SMDPad,CuDef*
G36*
X165334505Y-65161204D02*
G01*
X165358773Y-65164804D01*
X165382572Y-65170765D01*
X165405671Y-65179030D01*
X165427850Y-65189520D01*
X165448893Y-65202132D01*
X165468599Y-65216747D01*
X165486777Y-65233223D01*
X165503253Y-65251401D01*
X165517868Y-65271107D01*
X165530480Y-65292150D01*
X165540970Y-65314329D01*
X165549235Y-65337428D01*
X165555196Y-65361227D01*
X165558796Y-65385495D01*
X165560000Y-65409999D01*
X165560000Y-66310001D01*
X165558796Y-66334505D01*
X165555196Y-66358773D01*
X165549235Y-66382572D01*
X165540970Y-66405671D01*
X165530480Y-66427850D01*
X165517868Y-66448893D01*
X165503253Y-66468599D01*
X165486777Y-66486777D01*
X165468599Y-66503253D01*
X165448893Y-66517868D01*
X165427850Y-66530480D01*
X165405671Y-66540970D01*
X165382572Y-66549235D01*
X165358773Y-66555196D01*
X165334505Y-66558796D01*
X165310001Y-66560000D01*
X164659999Y-66560000D01*
X164635495Y-66558796D01*
X164611227Y-66555196D01*
X164587428Y-66549235D01*
X164564329Y-66540970D01*
X164542150Y-66530480D01*
X164521107Y-66517868D01*
X164501401Y-66503253D01*
X164483223Y-66486777D01*
X164466747Y-66468599D01*
X164452132Y-66448893D01*
X164439520Y-66427850D01*
X164429030Y-66405671D01*
X164420765Y-66382572D01*
X164414804Y-66358773D01*
X164411204Y-66334505D01*
X164410000Y-66310001D01*
X164410000Y-65409999D01*
X164411204Y-65385495D01*
X164414804Y-65361227D01*
X164420765Y-65337428D01*
X164429030Y-65314329D01*
X164439520Y-65292150D01*
X164452132Y-65271107D01*
X164466747Y-65251401D01*
X164483223Y-65233223D01*
X164501401Y-65216747D01*
X164521107Y-65202132D01*
X164542150Y-65189520D01*
X164564329Y-65179030D01*
X164587428Y-65170765D01*
X164611227Y-65164804D01*
X164635495Y-65161204D01*
X164659999Y-65160000D01*
X165310001Y-65160000D01*
X165334505Y-65161204D01*
G37*
G04 #@! TD.AperFunction*
D18*
X118540000Y-59270000D03*
X118540000Y-61810000D03*
X121080000Y-59270000D03*
D17*
X121080000Y-61810000D03*
G04 #@! TA.AperFunction,SMDPad,CuDef*
D12*
G36*
X142784505Y-71901204D02*
G01*
X142808773Y-71904804D01*
X142832572Y-71910765D01*
X142855671Y-71919030D01*
X142877850Y-71929520D01*
X142898893Y-71942132D01*
X142918599Y-71956747D01*
X142936777Y-71973223D01*
X142953253Y-71991401D01*
X142967868Y-72011107D01*
X142980480Y-72032150D01*
X142990970Y-72054329D01*
X142999235Y-72077428D01*
X143005196Y-72101227D01*
X143008796Y-72125495D01*
X143010000Y-72149999D01*
X143010000Y-73050001D01*
X143008796Y-73074505D01*
X143005196Y-73098773D01*
X142999235Y-73122572D01*
X142990970Y-73145671D01*
X142980480Y-73167850D01*
X142967868Y-73188893D01*
X142953253Y-73208599D01*
X142936777Y-73226777D01*
X142918599Y-73243253D01*
X142898893Y-73257868D01*
X142877850Y-73270480D01*
X142855671Y-73280970D01*
X142832572Y-73289235D01*
X142808773Y-73295196D01*
X142784505Y-73298796D01*
X142760001Y-73300000D01*
X142109999Y-73300000D01*
X142085495Y-73298796D01*
X142061227Y-73295196D01*
X142037428Y-73289235D01*
X142014329Y-73280970D01*
X141992150Y-73270480D01*
X141971107Y-73257868D01*
X141951401Y-73243253D01*
X141933223Y-73226777D01*
X141916747Y-73208599D01*
X141902132Y-73188893D01*
X141889520Y-73167850D01*
X141879030Y-73145671D01*
X141870765Y-73122572D01*
X141864804Y-73098773D01*
X141861204Y-73074505D01*
X141860000Y-73050001D01*
X141860000Y-72149999D01*
X141861204Y-72125495D01*
X141864804Y-72101227D01*
X141870765Y-72077428D01*
X141879030Y-72054329D01*
X141889520Y-72032150D01*
X141902132Y-72011107D01*
X141916747Y-71991401D01*
X141933223Y-71973223D01*
X141951401Y-71956747D01*
X141971107Y-71942132D01*
X141992150Y-71929520D01*
X142014329Y-71919030D01*
X142037428Y-71910765D01*
X142061227Y-71904804D01*
X142085495Y-71901204D01*
X142109999Y-71900000D01*
X142760001Y-71900000D01*
X142784505Y-71901204D01*
G37*
G04 #@! TD.AperFunction*
G04 #@! TA.AperFunction,SMDPad,CuDef*
G36*
X144834505Y-71901204D02*
G01*
X144858773Y-71904804D01*
X144882572Y-71910765D01*
X144905671Y-71919030D01*
X144927850Y-71929520D01*
X144948893Y-71942132D01*
X144968599Y-71956747D01*
X144986777Y-71973223D01*
X145003253Y-71991401D01*
X145017868Y-72011107D01*
X145030480Y-72032150D01*
X145040970Y-72054329D01*
X145049235Y-72077428D01*
X145055196Y-72101227D01*
X145058796Y-72125495D01*
X145060000Y-72149999D01*
X145060000Y-73050001D01*
X145058796Y-73074505D01*
X145055196Y-73098773D01*
X145049235Y-73122572D01*
X145040970Y-73145671D01*
X145030480Y-73167850D01*
X145017868Y-73188893D01*
X145003253Y-73208599D01*
X144986777Y-73226777D01*
X144968599Y-73243253D01*
X144948893Y-73257868D01*
X144927850Y-73270480D01*
X144905671Y-73280970D01*
X144882572Y-73289235D01*
X144858773Y-73295196D01*
X144834505Y-73298796D01*
X144810001Y-73300000D01*
X144159999Y-73300000D01*
X144135495Y-73298796D01*
X144111227Y-73295196D01*
X144087428Y-73289235D01*
X144064329Y-73280970D01*
X144042150Y-73270480D01*
X144021107Y-73257868D01*
X144001401Y-73243253D01*
X143983223Y-73226777D01*
X143966747Y-73208599D01*
X143952132Y-73188893D01*
X143939520Y-73167850D01*
X143929030Y-73145671D01*
X143920765Y-73122572D01*
X143914804Y-73098773D01*
X143911204Y-73074505D01*
X143910000Y-73050001D01*
X143910000Y-72149999D01*
X143911204Y-72125495D01*
X143914804Y-72101227D01*
X143920765Y-72077428D01*
X143929030Y-72054329D01*
X143939520Y-72032150D01*
X143952132Y-72011107D01*
X143966747Y-71991401D01*
X143983223Y-71973223D01*
X144001401Y-71956747D01*
X144021107Y-71942132D01*
X144042150Y-71929520D01*
X144064329Y-71919030D01*
X144087428Y-71910765D01*
X144111227Y-71904804D01*
X144135495Y-71901204D01*
X144159999Y-71900000D01*
X144810001Y-71900000D01*
X144834505Y-71901204D01*
G37*
G04 #@! TD.AperFunction*
D16*
X139500000Y-68110000D03*
X134900000Y-68110000D03*
X137200000Y-68110000D03*
D15*
X137200000Y-74410000D03*
D19*
X153070000Y-69695000D02*
X153140000Y-69625000D01*
X150370000Y-69695000D02*
X153070000Y-69695000D01*
X154345000Y-68420000D02*
X153140000Y-69625000D01*
X156860000Y-68420000D02*
X154345000Y-68420000D01*
X131215001Y-75735001D02*
X129380000Y-73900000D01*
X144904999Y-75735001D02*
X131215001Y-75735001D01*
X150370000Y-70270000D02*
X144904999Y-75735001D01*
X129380000Y-73900000D02*
X129380000Y-72350000D01*
X150370000Y-69695000D02*
X150370000Y-70270000D01*
X129380000Y-70800000D02*
X132070000Y-68110000D01*
X133900000Y-68110000D02*
X134900000Y-68110000D01*
X132070000Y-68110000D02*
X133900000Y-68110000D01*
X129380000Y-72350000D02*
X129380000Y-70800000D01*
X118540000Y-60472081D02*
X118540000Y-61810000D01*
X118540000Y-59270000D02*
X118540000Y-60472081D01*
X161465000Y-68415000D02*
X161460000Y-68420000D01*
X162940000Y-65855000D02*
X162935000Y-65860000D01*
X162940000Y-61790000D02*
X162940000Y-65855000D01*
X162460000Y-68420000D02*
X161460000Y-68420000D01*
X162935000Y-67945000D02*
X162460000Y-68420000D01*
X162935000Y-65860000D02*
X162935000Y-67945000D01*
X153070000Y-67645000D02*
X153140000Y-67575000D01*
X150370000Y-67645000D02*
X153070000Y-67645000D01*
X150135000Y-67410000D02*
X150370000Y-67645000D01*
X146410000Y-67410000D02*
X150135000Y-67410000D01*
X161460000Y-67170000D02*
X161460000Y-68420000D01*
X161080000Y-66790000D02*
X161460000Y-67170000D01*
X153840000Y-67575000D02*
X154625000Y-66790000D01*
X154625000Y-66790000D02*
X161080000Y-66790000D01*
X153140000Y-67575000D02*
X153840000Y-67575000D01*
X142915000Y-67410000D02*
X142430000Y-67895000D01*
X146410000Y-67410000D02*
X142915000Y-67410000D01*
X118540000Y-67510000D02*
X123380000Y-72350000D01*
X118540000Y-61810000D02*
X118540000Y-67510000D01*
X118540000Y-58067919D02*
X119727919Y-56880000D01*
X118540000Y-59270000D02*
X118540000Y-58067919D01*
X119727919Y-56880000D02*
X122680000Y-56880000D01*
X122680000Y-56880000D02*
X124110000Y-58310000D01*
X124110000Y-63130000D02*
X126310000Y-65330000D01*
X124110000Y-58310000D02*
X124110000Y-63130000D01*
X126310000Y-65330000D02*
X137970000Y-65330000D01*
X142215000Y-68110000D02*
X142430000Y-67895000D01*
X162940000Y-59250000D02*
X162940000Y-61790000D01*
X137970000Y-65330000D02*
X139500000Y-66860000D01*
X139500000Y-68110000D02*
X142215000Y-68110000D01*
X139500000Y-66860000D02*
X139500000Y-68110000D01*
X159160000Y-69670000D02*
X159160000Y-74720000D01*
X159160000Y-68420000D02*
X159160000Y-69670000D01*
X159160000Y-73470000D02*
X159160000Y-74720000D01*
X161310000Y-74720000D02*
X159160000Y-74720000D01*
X164985000Y-71045000D02*
X161310000Y-74720000D01*
X164985000Y-65860000D02*
X164985000Y-71045000D01*
X165480000Y-60452081D02*
X165480000Y-61790000D01*
X165480000Y-59250000D02*
X165480000Y-60452081D01*
X165480000Y-65365000D02*
X164985000Y-65860000D01*
X165480000Y-61790000D02*
X165480000Y-65365000D01*
X121080000Y-60472081D02*
X121080000Y-61810000D01*
X121080000Y-59270000D02*
X121080000Y-60472081D01*
X121080000Y-62910000D02*
X124540000Y-66370000D01*
X121080000Y-61810000D02*
X121080000Y-62910000D01*
X136710000Y-66370000D02*
X137200000Y-66860000D01*
X137200000Y-66860000D02*
X137200000Y-68110000D01*
X124540000Y-66370000D02*
X136710000Y-66370000D01*
X137200000Y-69360000D02*
X137200000Y-74410000D01*
X137200000Y-68110000D02*
X137200000Y-69360000D01*
X142430000Y-72595000D02*
X142435000Y-72600000D01*
X142430000Y-69945000D02*
X142430000Y-72595000D01*
X141325000Y-74410000D02*
X139350000Y-74410000D01*
X142435000Y-73300000D02*
X141325000Y-74410000D01*
X139350000Y-74410000D02*
X137200000Y-74410000D01*
X142435000Y-72600000D02*
X142435000Y-73300000D01*
X146410000Y-71222792D02*
X146410000Y-69950000D01*
X146410000Y-71250000D02*
X146410000Y-71222792D01*
X145060000Y-72600000D02*
X146410000Y-71250000D01*
X144485000Y-72600000D02*
X145060000Y-72600000D01*
D20*
G36*
X123411889Y-56627863D02*
G01*
X123654184Y-56701016D01*
X123877658Y-56819839D01*
X124073792Y-56979802D01*
X124235125Y-57174818D01*
X124355505Y-57397456D01*
X124430347Y-57639236D01*
X124460053Y-57921864D01*
X124470083Y-61954060D01*
X124472848Y-61981439D01*
X124472764Y-61993501D01*
X124473664Y-62002672D01*
X124513649Y-62383103D01*
X124525668Y-62441654D01*
X124536885Y-62500457D01*
X124539549Y-62509279D01*
X124652664Y-62874697D01*
X124675828Y-62929802D01*
X124698253Y-62985307D01*
X124702580Y-62993443D01*
X124884518Y-63329930D01*
X124917963Y-63379514D01*
X124950723Y-63429577D01*
X124956547Y-63436718D01*
X125200379Y-63731459D01*
X125242811Y-63773597D01*
X125284677Y-63816349D01*
X125291778Y-63822223D01*
X125588214Y-64063989D01*
X125638022Y-64097082D01*
X125687396Y-64130889D01*
X125695502Y-64135272D01*
X126033251Y-64314856D01*
X126088566Y-64337655D01*
X126143538Y-64361216D01*
X126152341Y-64363941D01*
X126518540Y-64474503D01*
X126577234Y-64486125D01*
X126635731Y-64498559D01*
X126644896Y-64499522D01*
X127025595Y-64536850D01*
X127025601Y-64536850D01*
X127057361Y-64539989D01*
X157032198Y-64550010D01*
X157061328Y-64547151D01*
X157073501Y-64547236D01*
X157082672Y-64546336D01*
X157463103Y-64506351D01*
X157521654Y-64494332D01*
X157580457Y-64483115D01*
X157589279Y-64480451D01*
X157954697Y-64367336D01*
X158009802Y-64344172D01*
X158065307Y-64321747D01*
X158073443Y-64317420D01*
X158409930Y-64135482D01*
X158459514Y-64102037D01*
X158509577Y-64069277D01*
X158516718Y-64063453D01*
X158811459Y-63819621D01*
X158853597Y-63777189D01*
X158896349Y-63735323D01*
X158902223Y-63728222D01*
X159143989Y-63431786D01*
X159177082Y-63381978D01*
X159210889Y-63332604D01*
X159215272Y-63324498D01*
X159394856Y-62986749D01*
X159417655Y-62931434D01*
X159441216Y-62876462D01*
X159443941Y-62867659D01*
X159554503Y-62501460D01*
X159566125Y-62442766D01*
X159578559Y-62384269D01*
X159579522Y-62375104D01*
X159601898Y-62146891D01*
X161498519Y-62146891D01*
X161595843Y-62421252D01*
X161744822Y-62671355D01*
X161939731Y-62887588D01*
X162173080Y-63061641D01*
X162435901Y-63186825D01*
X162583110Y-63231476D01*
X162813000Y-63110155D01*
X162813000Y-61917000D01*
X161619186Y-61917000D01*
X161498519Y-62146891D01*
X159601898Y-62146891D01*
X159616850Y-61994405D01*
X159616850Y-61994402D01*
X159620000Y-61962419D01*
X159620000Y-59606891D01*
X161498519Y-59606891D01*
X161595843Y-59881252D01*
X161744822Y-60131355D01*
X161939731Y-60347588D01*
X162170880Y-60520000D01*
X161939731Y-60692412D01*
X161744822Y-60908645D01*
X161595843Y-61158748D01*
X161498519Y-61433109D01*
X161619186Y-61663000D01*
X162813000Y-61663000D01*
X162813000Y-59377000D01*
X161619186Y-59377000D01*
X161498519Y-59606891D01*
X159620000Y-59606891D01*
X159620000Y-58893109D01*
X161498519Y-58893109D01*
X161619186Y-59123000D01*
X162813000Y-59123000D01*
X162813000Y-57929845D01*
X162583110Y-57808524D01*
X162435901Y-57853175D01*
X162173080Y-57978359D01*
X161939731Y-58152412D01*
X161744822Y-58368645D01*
X161595843Y-58618748D01*
X161498519Y-58893109D01*
X159620000Y-58893109D01*
X159620000Y-58062279D01*
X159647863Y-57778111D01*
X159721016Y-57535816D01*
X159839839Y-57312342D01*
X159999802Y-57116208D01*
X160194818Y-56954875D01*
X160417456Y-56834495D01*
X160659236Y-56759653D01*
X160941360Y-56730000D01*
X167077721Y-56730000D01*
X167361889Y-56757863D01*
X167604184Y-56831016D01*
X167827658Y-56949839D01*
X168023792Y-57109802D01*
X168185125Y-57304818D01*
X168305505Y-57527456D01*
X168380347Y-57769236D01*
X168409978Y-58051155D01*
X168390034Y-77197374D01*
X168362137Y-77481889D01*
X168288984Y-77724184D01*
X168170161Y-77947658D01*
X168010196Y-78143794D01*
X167815181Y-78305125D01*
X167592544Y-78425505D01*
X167350764Y-78500348D01*
X167068517Y-78530013D01*
X127612497Y-78553677D01*
X127613491Y-78553013D01*
X127883013Y-78283491D01*
X128094775Y-77966566D01*
X128240639Y-77614419D01*
X128315000Y-77240581D01*
X128315000Y-76859419D01*
X128240639Y-76485581D01*
X128094775Y-76133434D01*
X127883013Y-75816509D01*
X127613491Y-75546987D01*
X127296566Y-75335225D01*
X126944419Y-75189361D01*
X126570581Y-75115000D01*
X126189419Y-75115000D01*
X125815581Y-75189361D01*
X125463434Y-75335225D01*
X125146509Y-75546987D01*
X124876987Y-75816509D01*
X124665225Y-76133434D01*
X124519361Y-76485581D01*
X124445000Y-76859419D01*
X124445000Y-77240581D01*
X124519361Y-77614419D01*
X124665225Y-77966566D01*
X124876987Y-78283491D01*
X125146509Y-78553013D01*
X125149714Y-78555154D01*
X117102086Y-78559981D01*
X116818111Y-78532137D01*
X116575816Y-78458984D01*
X116352342Y-78340161D01*
X116156206Y-78180196D01*
X115994875Y-77985181D01*
X115874495Y-77762544D01*
X115799652Y-77520764D01*
X115769934Y-77238017D01*
X115758945Y-73699224D01*
X122210381Y-73699224D01*
X122342317Y-73994312D01*
X122683045Y-74165159D01*
X123050557Y-74266250D01*
X123430729Y-74293701D01*
X123808951Y-74246457D01*
X124170690Y-74126333D01*
X124417683Y-73994312D01*
X124549619Y-73699224D01*
X123380000Y-72529605D01*
X122210381Y-73699224D01*
X115758945Y-73699224D01*
X115754912Y-72400729D01*
X121436299Y-72400729D01*
X121483543Y-72778951D01*
X121603667Y-73140690D01*
X121735688Y-73387683D01*
X122030776Y-73519619D01*
X123200395Y-72350000D01*
X123559605Y-72350000D01*
X124729224Y-73519619D01*
X125024312Y-73387683D01*
X125195159Y-73046955D01*
X125296250Y-72679443D01*
X125323701Y-72299271D01*
X125276457Y-71921049D01*
X125156333Y-71559310D01*
X125024312Y-71312317D01*
X124729224Y-71180381D01*
X123559605Y-72350000D01*
X123200395Y-72350000D01*
X122030776Y-71180381D01*
X121735688Y-71312317D01*
X121564841Y-71653045D01*
X121463750Y-72020557D01*
X121436299Y-72400729D01*
X115754912Y-72400729D01*
X115750565Y-71000776D01*
X122210381Y-71000776D01*
X123380000Y-72170395D01*
X124549619Y-71000776D01*
X124417683Y-70705688D01*
X124076955Y-70534841D01*
X123709443Y-70433750D01*
X123329271Y-70406299D01*
X122951049Y-70453543D01*
X122589310Y-70573667D01*
X122342317Y-70705688D01*
X122210381Y-71000776D01*
X115750565Y-71000776D01*
X115723130Y-62166891D01*
X117098519Y-62166891D01*
X117195843Y-62441252D01*
X117344822Y-62691355D01*
X117539731Y-62907588D01*
X117773080Y-63081641D01*
X118035901Y-63206825D01*
X118183110Y-63251476D01*
X118413000Y-63130155D01*
X118413000Y-61937000D01*
X117219186Y-61937000D01*
X117098519Y-62166891D01*
X115723130Y-62166891D01*
X115715242Y-59626891D01*
X117098519Y-59626891D01*
X117195843Y-59901252D01*
X117344822Y-60151355D01*
X117539731Y-60367588D01*
X117770880Y-60540000D01*
X117539731Y-60712412D01*
X117344822Y-60928645D01*
X117195843Y-61178748D01*
X117098519Y-61453109D01*
X117219186Y-61683000D01*
X118413000Y-61683000D01*
X118413000Y-59397000D01*
X117219186Y-59397000D01*
X117098519Y-59626891D01*
X115715242Y-59626891D01*
X115713026Y-58913109D01*
X117098519Y-58913109D01*
X117219186Y-59143000D01*
X118413000Y-59143000D01*
X118413000Y-57949845D01*
X118667000Y-57949845D01*
X118667000Y-59143000D01*
X118687000Y-59143000D01*
X118687000Y-59397000D01*
X118667000Y-59397000D01*
X118667000Y-61683000D01*
X118687000Y-61683000D01*
X118687000Y-61937000D01*
X118667000Y-61937000D01*
X118667000Y-63130155D01*
X118896890Y-63251476D01*
X119044099Y-63206825D01*
X119306920Y-63081641D01*
X119540269Y-62907588D01*
X119616034Y-62823534D01*
X119640498Y-62904180D01*
X119699463Y-63014494D01*
X119778815Y-63111185D01*
X119875506Y-63190537D01*
X119985820Y-63249502D01*
X120105518Y-63285812D01*
X120230000Y-63298072D01*
X120425674Y-63298072D01*
X120445026Y-63334276D01*
X120483711Y-63381413D01*
X120540000Y-63450001D01*
X120568998Y-63473799D01*
X123976200Y-66881002D01*
X123999999Y-66910001D01*
X124028997Y-66933799D01*
X124115723Y-67004974D01*
X124228970Y-67065506D01*
X124247753Y-67075546D01*
X124391014Y-67119003D01*
X124502667Y-67130000D01*
X124502677Y-67130000D01*
X124540000Y-67133676D01*
X124577323Y-67130000D01*
X133511928Y-67130000D01*
X133511928Y-67350000D01*
X132107322Y-67350000D01*
X132069999Y-67346324D01*
X132032676Y-67350000D01*
X132032667Y-67350000D01*
X131921014Y-67360997D01*
X131777753Y-67404454D01*
X131645724Y-67475026D01*
X131645722Y-67475027D01*
X131645723Y-67475027D01*
X131558996Y-67546201D01*
X131558992Y-67546205D01*
X131529999Y-67569999D01*
X131506205Y-67598992D01*
X128868998Y-70236201D01*
X128840000Y-70259999D01*
X128816202Y-70288997D01*
X128816201Y-70288998D01*
X128745026Y-70375724D01*
X128725674Y-70411928D01*
X128080000Y-70411928D01*
X127955518Y-70424188D01*
X127835820Y-70460498D01*
X127725506Y-70519463D01*
X127628815Y-70598815D01*
X127549463Y-70695506D01*
X127490498Y-70805820D01*
X127454188Y-70925518D01*
X127441928Y-71050000D01*
X127441928Y-73650000D01*
X127454188Y-73774482D01*
X127490498Y-73894180D01*
X127549463Y-74004494D01*
X127628815Y-74101185D01*
X127725506Y-74180537D01*
X127835820Y-74239502D01*
X127955518Y-74275812D01*
X128080000Y-74288072D01*
X128725674Y-74288072D01*
X128745026Y-74324276D01*
X128784871Y-74372826D01*
X128839999Y-74440001D01*
X128869003Y-74463804D01*
X130651202Y-76246004D01*
X130675000Y-76275002D01*
X130790725Y-76369975D01*
X130922754Y-76440547D01*
X131066015Y-76484004D01*
X131177668Y-76495001D01*
X131177677Y-76495001D01*
X131215000Y-76498677D01*
X131252323Y-76495001D01*
X144867677Y-76495001D01*
X144904999Y-76498677D01*
X144942321Y-76495001D01*
X144942332Y-76495001D01*
X145053985Y-76484004D01*
X145197246Y-76440547D01*
X145329275Y-76369975D01*
X145445000Y-76275002D01*
X145468803Y-76245998D01*
X150806730Y-70908072D01*
X150820001Y-70908072D01*
X150993255Y-70891008D01*
X151159851Y-70840472D01*
X151313387Y-70758405D01*
X151447962Y-70647962D01*
X151558405Y-70513387D01*
X151589614Y-70455000D01*
X151961126Y-70455000D01*
X152062038Y-70577962D01*
X152196613Y-70688405D01*
X152350149Y-70770472D01*
X152516745Y-70821008D01*
X152689999Y-70838072D01*
X153590001Y-70838072D01*
X153763255Y-70821008D01*
X153929851Y-70770472D01*
X154083387Y-70688405D01*
X154217962Y-70577962D01*
X154328405Y-70443387D01*
X154410472Y-70289851D01*
X154461008Y-70123255D01*
X154478072Y-69950001D01*
X154478072Y-69361730D01*
X154659802Y-69180000D01*
X155471928Y-69180000D01*
X155471928Y-69420000D01*
X155484188Y-69544482D01*
X155520498Y-69664180D01*
X155579463Y-69774494D01*
X155658815Y-69871185D01*
X155755506Y-69950537D01*
X155865820Y-70009502D01*
X155985518Y-70045812D01*
X156110000Y-70058072D01*
X157610000Y-70058072D01*
X157734482Y-70045812D01*
X157854180Y-70009502D01*
X157964494Y-69950537D01*
X158010000Y-69913191D01*
X158055506Y-69950537D01*
X158165820Y-70009502D01*
X158285518Y-70045812D01*
X158400000Y-70057087D01*
X158400001Y-73081928D01*
X157260000Y-73081928D01*
X157135518Y-73094188D01*
X157015820Y-73130498D01*
X156905506Y-73189463D01*
X156808815Y-73268815D01*
X156729463Y-73365506D01*
X156670498Y-73475820D01*
X156634188Y-73595518D01*
X156621928Y-73720000D01*
X156621928Y-75720000D01*
X156634188Y-75844482D01*
X156670498Y-75964180D01*
X156729463Y-76074494D01*
X156808815Y-76171185D01*
X156905506Y-76250537D01*
X157015820Y-76309502D01*
X157135518Y-76345812D01*
X157260000Y-76358072D01*
X161060000Y-76358072D01*
X161184482Y-76345812D01*
X161304180Y-76309502D01*
X161414494Y-76250537D01*
X161511185Y-76171185D01*
X161590537Y-76074494D01*
X161649502Y-75964180D01*
X161685812Y-75844482D01*
X161698072Y-75720000D01*
X161698072Y-75374326D01*
X161734276Y-75354974D01*
X161850001Y-75260001D01*
X161873804Y-75230997D01*
X165496003Y-71608799D01*
X165525001Y-71585001D01*
X165619974Y-71469276D01*
X165690546Y-71337247D01*
X165734003Y-71193986D01*
X165745000Y-71082333D01*
X165745000Y-71082323D01*
X165748676Y-71045000D01*
X165745000Y-71007677D01*
X165745000Y-67079614D01*
X165803387Y-67048405D01*
X165937962Y-66937962D01*
X166048405Y-66803387D01*
X166130472Y-66649851D01*
X166181008Y-66483255D01*
X166198072Y-66310001D01*
X166198072Y-65615954D01*
X166229003Y-65513986D01*
X166240000Y-65402333D01*
X166240000Y-65402325D01*
X166243676Y-65365000D01*
X166240000Y-65327675D01*
X166240000Y-63278072D01*
X166330000Y-63278072D01*
X166454482Y-63265812D01*
X166574180Y-63229502D01*
X166684494Y-63170537D01*
X166781185Y-63091185D01*
X166860537Y-62994494D01*
X166919502Y-62884180D01*
X166955812Y-62764482D01*
X166968072Y-62640000D01*
X166968072Y-60940000D01*
X166955812Y-60815518D01*
X166919502Y-60695820D01*
X166860537Y-60585506D01*
X166781185Y-60488815D01*
X166684494Y-60409463D01*
X166574180Y-60350498D01*
X166501620Y-60328487D01*
X166633475Y-60196632D01*
X166795990Y-59953411D01*
X166907932Y-59683158D01*
X166965000Y-59396260D01*
X166965000Y-59103740D01*
X166907932Y-58816842D01*
X166795990Y-58546589D01*
X166633475Y-58303368D01*
X166426632Y-58096525D01*
X166183411Y-57934010D01*
X165913158Y-57822068D01*
X165626260Y-57765000D01*
X165333740Y-57765000D01*
X165046842Y-57822068D01*
X164776589Y-57934010D01*
X164533368Y-58096525D01*
X164326525Y-58303368D01*
X164204805Y-58485534D01*
X164135178Y-58368645D01*
X163940269Y-58152412D01*
X163706920Y-57978359D01*
X163444099Y-57853175D01*
X163296890Y-57808524D01*
X163067000Y-57929845D01*
X163067000Y-59123000D01*
X163087000Y-59123000D01*
X163087000Y-59377000D01*
X163067000Y-59377000D01*
X163067000Y-61663000D01*
X163087000Y-61663000D01*
X163087000Y-61917000D01*
X163067000Y-61917000D01*
X163067000Y-63110155D01*
X163296890Y-63231476D01*
X163444099Y-63186825D01*
X163706920Y-63061641D01*
X163940269Y-62887588D01*
X164016034Y-62803534D01*
X164040498Y-62884180D01*
X164099463Y-62994494D01*
X164178815Y-63091185D01*
X164275506Y-63170537D01*
X164385820Y-63229502D01*
X164505518Y-63265812D01*
X164630000Y-63278072D01*
X164720000Y-63278072D01*
X164720001Y-64521928D01*
X164659999Y-64521928D01*
X164486745Y-64538992D01*
X164320149Y-64589528D01*
X164166613Y-64671595D01*
X164032038Y-64782038D01*
X164026658Y-64788594D01*
X163961185Y-64708815D01*
X163864494Y-64629463D01*
X163754180Y-64570498D01*
X163634482Y-64534188D01*
X163510000Y-64521928D01*
X163220750Y-64525000D01*
X163062000Y-64683750D01*
X163062000Y-65733000D01*
X163082000Y-65733000D01*
X163082000Y-65987000D01*
X163062000Y-65987000D01*
X163062000Y-67036250D01*
X163220750Y-67195000D01*
X163510000Y-67198072D01*
X163634482Y-67185812D01*
X163754180Y-67149502D01*
X163864494Y-67090537D01*
X163961185Y-67011185D01*
X164026658Y-66931406D01*
X164032038Y-66937962D01*
X164166613Y-67048405D01*
X164225000Y-67079614D01*
X164225001Y-70730197D01*
X161590156Y-73365042D01*
X161511185Y-73268815D01*
X161414494Y-73189463D01*
X161304180Y-73130498D01*
X161184482Y-73094188D01*
X161060000Y-73081928D01*
X159920000Y-73081928D01*
X159920000Y-70057087D01*
X160034482Y-70045812D01*
X160154180Y-70009502D01*
X160264494Y-69950537D01*
X160310000Y-69913191D01*
X160355506Y-69950537D01*
X160465820Y-70009502D01*
X160585518Y-70045812D01*
X160710000Y-70058072D01*
X161174250Y-70055000D01*
X161333000Y-69896250D01*
X161333000Y-68547000D01*
X161587000Y-68547000D01*
X161587000Y-69896250D01*
X161745750Y-70055000D01*
X162210000Y-70058072D01*
X162334482Y-70045812D01*
X162454180Y-70009502D01*
X162564494Y-69950537D01*
X162661185Y-69871185D01*
X162740537Y-69774494D01*
X162799502Y-69664180D01*
X162835812Y-69544482D01*
X162848072Y-69420000D01*
X162845000Y-68705750D01*
X162686250Y-68547000D01*
X161587000Y-68547000D01*
X161333000Y-68547000D01*
X161313000Y-68547000D01*
X161313000Y-68293000D01*
X161333000Y-68293000D01*
X161333000Y-66943750D01*
X161587000Y-66943750D01*
X161587000Y-68293000D01*
X162686250Y-68293000D01*
X162845000Y-68134250D01*
X162848072Y-67420000D01*
X162835812Y-67295518D01*
X162799502Y-67175820D01*
X162753846Y-67090404D01*
X162808000Y-67036250D01*
X162808000Y-65987000D01*
X161883750Y-65987000D01*
X161725000Y-66145750D01*
X161721928Y-66560000D01*
X161734188Y-66684482D01*
X161764642Y-66784875D01*
X161745750Y-66785000D01*
X161587000Y-66943750D01*
X161333000Y-66943750D01*
X161174250Y-66785000D01*
X160710000Y-66781928D01*
X160585518Y-66794188D01*
X160465820Y-66830498D01*
X160355506Y-66889463D01*
X160310000Y-66926809D01*
X160264494Y-66889463D01*
X160154180Y-66830498D01*
X160034482Y-66794188D01*
X159910000Y-66781928D01*
X158410000Y-66781928D01*
X158285518Y-66794188D01*
X158165820Y-66830498D01*
X158055506Y-66889463D01*
X158010000Y-66926809D01*
X157964494Y-66889463D01*
X157854180Y-66830498D01*
X157734482Y-66794188D01*
X157610000Y-66781928D01*
X156110000Y-66781928D01*
X155985518Y-66794188D01*
X155865820Y-66830498D01*
X155755506Y-66889463D01*
X155658815Y-66968815D01*
X155579463Y-67065506D01*
X155520498Y-67175820D01*
X155484188Y-67295518D01*
X155471928Y-67420000D01*
X155471928Y-67660000D01*
X154382322Y-67660000D01*
X154344999Y-67656324D01*
X154307676Y-67660000D01*
X154307667Y-67660000D01*
X154196014Y-67670997D01*
X154093809Y-67702000D01*
X153267000Y-67702000D01*
X153267000Y-67722000D01*
X153013000Y-67722000D01*
X153013000Y-67702000D01*
X151963750Y-67702000D01*
X151805000Y-67860750D01*
X151801928Y-68150000D01*
X151814188Y-68274482D01*
X151850498Y-68394180D01*
X151909463Y-68504494D01*
X151988815Y-68601185D01*
X152068594Y-68666658D01*
X152062038Y-68672038D01*
X151951595Y-68806613D01*
X151882970Y-68935000D01*
X151589614Y-68935000D01*
X151558405Y-68876613D01*
X151447962Y-68742038D01*
X151441406Y-68736658D01*
X151521185Y-68671185D01*
X151600537Y-68574494D01*
X151659502Y-68464180D01*
X151695812Y-68344482D01*
X151708072Y-68220000D01*
X151705000Y-67930750D01*
X151546250Y-67772000D01*
X150497000Y-67772000D01*
X150497000Y-67792000D01*
X150243000Y-67792000D01*
X150243000Y-67772000D01*
X149193750Y-67772000D01*
X149035000Y-67930750D01*
X149031928Y-68220000D01*
X149044188Y-68344482D01*
X149080498Y-68464180D01*
X149139463Y-68574494D01*
X149218815Y-68671185D01*
X149298594Y-68736658D01*
X149292038Y-68742038D01*
X149181595Y-68876613D01*
X149099528Y-69030149D01*
X149048992Y-69196745D01*
X149031928Y-69369999D01*
X149031928Y-70020001D01*
X149048992Y-70193255D01*
X149099528Y-70359851D01*
X149136388Y-70428810D01*
X144590198Y-74975001D01*
X141834538Y-74975001D01*
X141865001Y-74950001D01*
X141888804Y-74920998D01*
X142883936Y-73925865D01*
X142933255Y-73921008D01*
X143099851Y-73870472D01*
X143253387Y-73788405D01*
X143387962Y-73677962D01*
X143460000Y-73590184D01*
X143532038Y-73677962D01*
X143666613Y-73788405D01*
X143820149Y-73870472D01*
X143986745Y-73921008D01*
X144159999Y-73938072D01*
X144810001Y-73938072D01*
X144983255Y-73921008D01*
X145149851Y-73870472D01*
X145303387Y-73788405D01*
X145437962Y-73677962D01*
X145548405Y-73543387D01*
X145630472Y-73389851D01*
X145681008Y-73223255D01*
X145698072Y-73050001D01*
X145698072Y-73036729D01*
X146921004Y-71813798D01*
X146950001Y-71790001D01*
X147044974Y-71674276D01*
X147115546Y-71542247D01*
X147159003Y-71398986D01*
X147169897Y-71288382D01*
X147388505Y-71142312D01*
X147602312Y-70928505D01*
X147770299Y-70677095D01*
X147886011Y-70397743D01*
X147945000Y-70101184D01*
X147945000Y-69798816D01*
X147886011Y-69502257D01*
X147770299Y-69222905D01*
X147602312Y-68971495D01*
X147535873Y-68905056D01*
X147554180Y-68899502D01*
X147664494Y-68840537D01*
X147761185Y-68761185D01*
X147840537Y-68664494D01*
X147899502Y-68554180D01*
X147935812Y-68434482D01*
X147948072Y-68310000D01*
X147945000Y-67695750D01*
X147786250Y-67537000D01*
X146537000Y-67537000D01*
X146537000Y-67557000D01*
X146283000Y-67557000D01*
X146283000Y-67537000D01*
X145033750Y-67537000D01*
X144875000Y-67695750D01*
X144871928Y-68310000D01*
X144884188Y-68434482D01*
X144920498Y-68554180D01*
X144979463Y-68664494D01*
X145058815Y-68761185D01*
X145155506Y-68840537D01*
X145265820Y-68899502D01*
X145284127Y-68905056D01*
X145217688Y-68971495D01*
X145049701Y-69222905D01*
X144933989Y-69502257D01*
X144875000Y-69798816D01*
X144875000Y-70101184D01*
X144933989Y-70397743D01*
X145049701Y-70677095D01*
X145217688Y-70928505D01*
X145431495Y-71142312D01*
X145438324Y-71146875D01*
X145218811Y-71366388D01*
X145149851Y-71329528D01*
X144983255Y-71278992D01*
X144810001Y-71261928D01*
X144159999Y-71261928D01*
X143986745Y-71278992D01*
X143820149Y-71329528D01*
X143666613Y-71411595D01*
X143532038Y-71522038D01*
X143460000Y-71609816D01*
X143387962Y-71522038D01*
X143253387Y-71411595D01*
X143190000Y-71377714D01*
X143190000Y-71099527D01*
X143219851Y-71090472D01*
X143373387Y-71008405D01*
X143507962Y-70897962D01*
X143618405Y-70763387D01*
X143700472Y-70609851D01*
X143751008Y-70443255D01*
X143768072Y-70270001D01*
X143768072Y-69619999D01*
X143751008Y-69446745D01*
X143700472Y-69280149D01*
X143618405Y-69126613D01*
X143507962Y-68992038D01*
X143501406Y-68986658D01*
X143581185Y-68921185D01*
X143660537Y-68824494D01*
X143719502Y-68714180D01*
X143755812Y-68594482D01*
X143768072Y-68470000D01*
X143765000Y-68180750D01*
X143606250Y-68022000D01*
X142557000Y-68022000D01*
X142557000Y-68042000D01*
X142303000Y-68042000D01*
X142303000Y-68022000D01*
X141253750Y-68022000D01*
X141095000Y-68180750D01*
X141091928Y-68470000D01*
X141104188Y-68594482D01*
X141140498Y-68714180D01*
X141199463Y-68824494D01*
X141278815Y-68921185D01*
X141358594Y-68986658D01*
X141352038Y-68992038D01*
X141241595Y-69126613D01*
X141159528Y-69280149D01*
X141108992Y-69446745D01*
X141091928Y-69619999D01*
X141091928Y-70270001D01*
X141108992Y-70443255D01*
X141159528Y-70609851D01*
X141241595Y-70763387D01*
X141352038Y-70897962D01*
X141486613Y-71008405D01*
X141640149Y-71090472D01*
X141670000Y-71099527D01*
X141670001Y-71383059D01*
X141616613Y-71411595D01*
X141482038Y-71522038D01*
X141371595Y-71656613D01*
X141289528Y-71810149D01*
X141238992Y-71976745D01*
X141221928Y-72149999D01*
X141221928Y-73050001D01*
X141238992Y-73223255D01*
X141285064Y-73375135D01*
X141010199Y-73650000D01*
X139738072Y-73650000D01*
X139738072Y-73410000D01*
X139725812Y-73285518D01*
X139689502Y-73165820D01*
X139630537Y-73055506D01*
X139551185Y-72958815D01*
X139454494Y-72879463D01*
X139344180Y-72820498D01*
X139224482Y-72784188D01*
X139100000Y-72771928D01*
X137960000Y-72771928D01*
X137960000Y-69747087D01*
X138074482Y-69735812D01*
X138194180Y-69699502D01*
X138304494Y-69640537D01*
X138350000Y-69603191D01*
X138395506Y-69640537D01*
X138505820Y-69699502D01*
X138625518Y-69735812D01*
X138750000Y-69748072D01*
X139214250Y-69745000D01*
X139373000Y-69586250D01*
X139373000Y-68237000D01*
X139627000Y-68237000D01*
X139627000Y-69586250D01*
X139785750Y-69745000D01*
X140250000Y-69748072D01*
X140374482Y-69735812D01*
X140494180Y-69699502D01*
X140604494Y-69640537D01*
X140701185Y-69561185D01*
X140780537Y-69464494D01*
X140839502Y-69354180D01*
X140875812Y-69234482D01*
X140888072Y-69110000D01*
X140885000Y-68395750D01*
X140726250Y-68237000D01*
X139627000Y-68237000D01*
X139373000Y-68237000D01*
X139353000Y-68237000D01*
X139353000Y-67983000D01*
X139373000Y-67983000D01*
X139373000Y-66633750D01*
X139627000Y-66633750D01*
X139627000Y-67983000D01*
X140726250Y-67983000D01*
X140885000Y-67824250D01*
X140887168Y-67320000D01*
X141091928Y-67320000D01*
X141095000Y-67609250D01*
X141253750Y-67768000D01*
X142303000Y-67768000D01*
X142303000Y-66843750D01*
X142557000Y-66843750D01*
X142557000Y-67768000D01*
X143606250Y-67768000D01*
X143765000Y-67609250D01*
X143768072Y-67320000D01*
X143755812Y-67195518D01*
X143719502Y-67075820D01*
X143660537Y-66965506D01*
X143581185Y-66868815D01*
X143484494Y-66789463D01*
X143374180Y-66730498D01*
X143254482Y-66694188D01*
X143130000Y-66681928D01*
X142715750Y-66685000D01*
X142557000Y-66843750D01*
X142303000Y-66843750D01*
X142144250Y-66685000D01*
X141730000Y-66681928D01*
X141605518Y-66694188D01*
X141485820Y-66730498D01*
X141375506Y-66789463D01*
X141278815Y-66868815D01*
X141199463Y-66965506D01*
X141140498Y-67075820D01*
X141104188Y-67195518D01*
X141091928Y-67320000D01*
X140887168Y-67320000D01*
X140888072Y-67110000D01*
X140875812Y-66985518D01*
X140839502Y-66865820D01*
X140780537Y-66755506D01*
X140701185Y-66658815D01*
X140604494Y-66579463D01*
X140494180Y-66520498D01*
X140459573Y-66510000D01*
X144871928Y-66510000D01*
X144875000Y-67124250D01*
X145033750Y-67283000D01*
X146283000Y-67283000D01*
X146283000Y-66033750D01*
X146537000Y-66033750D01*
X146537000Y-67283000D01*
X147786250Y-67283000D01*
X147945000Y-67124250D01*
X147945271Y-67070000D01*
X149031928Y-67070000D01*
X149035000Y-67359250D01*
X149193750Y-67518000D01*
X150243000Y-67518000D01*
X150243000Y-66593750D01*
X150497000Y-66593750D01*
X150497000Y-67518000D01*
X151546250Y-67518000D01*
X151705000Y-67359250D01*
X151708072Y-67070000D01*
X151701178Y-67000000D01*
X151801928Y-67000000D01*
X151805000Y-67289250D01*
X151963750Y-67448000D01*
X153013000Y-67448000D01*
X153013000Y-66523750D01*
X153267000Y-66523750D01*
X153267000Y-67448000D01*
X154316250Y-67448000D01*
X154475000Y-67289250D01*
X154478072Y-67000000D01*
X154465812Y-66875518D01*
X154429502Y-66755820D01*
X154370537Y-66645506D01*
X154291185Y-66548815D01*
X154194494Y-66469463D01*
X154084180Y-66410498D01*
X153964482Y-66374188D01*
X153840000Y-66361928D01*
X153425750Y-66365000D01*
X153267000Y-66523750D01*
X153013000Y-66523750D01*
X152854250Y-66365000D01*
X152440000Y-66361928D01*
X152315518Y-66374188D01*
X152195820Y-66410498D01*
X152085506Y-66469463D01*
X151988815Y-66548815D01*
X151909463Y-66645506D01*
X151850498Y-66755820D01*
X151814188Y-66875518D01*
X151801928Y-67000000D01*
X151701178Y-67000000D01*
X151695812Y-66945518D01*
X151659502Y-66825820D01*
X151600537Y-66715506D01*
X151521185Y-66618815D01*
X151424494Y-66539463D01*
X151314180Y-66480498D01*
X151194482Y-66444188D01*
X151070000Y-66431928D01*
X150655750Y-66435000D01*
X150497000Y-66593750D01*
X150243000Y-66593750D01*
X150084250Y-66435000D01*
X149670000Y-66431928D01*
X149545518Y-66444188D01*
X149425820Y-66480498D01*
X149315506Y-66539463D01*
X149218815Y-66618815D01*
X149139463Y-66715506D01*
X149080498Y-66825820D01*
X149044188Y-66945518D01*
X149031928Y-67070000D01*
X147945271Y-67070000D01*
X147948072Y-66510000D01*
X147935812Y-66385518D01*
X147899502Y-66265820D01*
X147840537Y-66155506D01*
X147761185Y-66058815D01*
X147664494Y-65979463D01*
X147554180Y-65920498D01*
X147434482Y-65884188D01*
X147310000Y-65871928D01*
X146695750Y-65875000D01*
X146537000Y-66033750D01*
X146283000Y-66033750D01*
X146124250Y-65875000D01*
X145510000Y-65871928D01*
X145385518Y-65884188D01*
X145265820Y-65920498D01*
X145155506Y-65979463D01*
X145058815Y-66058815D01*
X144979463Y-66155506D01*
X144920498Y-66265820D01*
X144884188Y-66385518D01*
X144871928Y-66510000D01*
X140459573Y-66510000D01*
X140374482Y-66484188D01*
X140250000Y-66471928D01*
X139785750Y-66475000D01*
X139627000Y-66633750D01*
X139373000Y-66633750D01*
X139214250Y-66475000D01*
X138750000Y-66471928D01*
X138625518Y-66484188D01*
X138505820Y-66520498D01*
X138395506Y-66579463D01*
X138350000Y-66616809D01*
X138304494Y-66579463D01*
X138194180Y-66520498D01*
X138074482Y-66484188D01*
X137950000Y-66471928D01*
X137854326Y-66471928D01*
X137834974Y-66435724D01*
X137740001Y-66319999D01*
X137710998Y-66296197D01*
X137273804Y-65859003D01*
X137250001Y-65829999D01*
X137134276Y-65735026D01*
X137002247Y-65664454D01*
X136858986Y-65620997D01*
X136747333Y-65610000D01*
X136747322Y-65610000D01*
X136710000Y-65606324D01*
X136672678Y-65610000D01*
X124854802Y-65610000D01*
X124404802Y-65160000D01*
X161721928Y-65160000D01*
X161725000Y-65574250D01*
X161883750Y-65733000D01*
X162808000Y-65733000D01*
X162808000Y-64683750D01*
X162649250Y-64525000D01*
X162360000Y-64521928D01*
X162235518Y-64534188D01*
X162115820Y-64570498D01*
X162005506Y-64629463D01*
X161908815Y-64708815D01*
X161829463Y-64805506D01*
X161770498Y-64915820D01*
X161734188Y-65035518D01*
X161721928Y-65160000D01*
X124404802Y-65160000D01*
X122367345Y-63122543D01*
X122381185Y-63111185D01*
X122460537Y-63014494D01*
X122519502Y-62904180D01*
X122555812Y-62784482D01*
X122568072Y-62660000D01*
X122568072Y-60960000D01*
X122555812Y-60835518D01*
X122519502Y-60715820D01*
X122460537Y-60605506D01*
X122381185Y-60508815D01*
X122284494Y-60429463D01*
X122174180Y-60370498D01*
X122101620Y-60348487D01*
X122233475Y-60216632D01*
X122395990Y-59973411D01*
X122507932Y-59703158D01*
X122565000Y-59416260D01*
X122565000Y-59123740D01*
X122507932Y-58836842D01*
X122395990Y-58566589D01*
X122233475Y-58323368D01*
X122026632Y-58116525D01*
X121783411Y-57954010D01*
X121513158Y-57842068D01*
X121226260Y-57785000D01*
X120933740Y-57785000D01*
X120646842Y-57842068D01*
X120376589Y-57954010D01*
X120133368Y-58116525D01*
X119926525Y-58323368D01*
X119804805Y-58505534D01*
X119735178Y-58388645D01*
X119540269Y-58172412D01*
X119306920Y-57998359D01*
X119044099Y-57873175D01*
X118896890Y-57828524D01*
X118667000Y-57949845D01*
X118413000Y-57949845D01*
X118183110Y-57828524D01*
X118035901Y-57873175D01*
X117773080Y-57998359D01*
X117539731Y-58172412D01*
X117344822Y-58388645D01*
X117195843Y-58638748D01*
X117098519Y-58913109D01*
X115713026Y-58913109D01*
X115710100Y-57971258D01*
X115737863Y-57688111D01*
X115811016Y-57445816D01*
X115929839Y-57222342D01*
X116089802Y-57026208D01*
X116284818Y-56864875D01*
X116507456Y-56744495D01*
X116749236Y-56669653D01*
X117032636Y-56639866D01*
X123129861Y-56600210D01*
X123411889Y-56627863D01*
G37*
X123411889Y-56627863D02*
X123654184Y-56701016D01*
X123877658Y-56819839D01*
X124073792Y-56979802D01*
X124235125Y-57174818D01*
X124355505Y-57397456D01*
X124430347Y-57639236D01*
X124460053Y-57921864D01*
X124470083Y-61954060D01*
X124472848Y-61981439D01*
X124472764Y-61993501D01*
X124473664Y-62002672D01*
X124513649Y-62383103D01*
X124525668Y-62441654D01*
X124536885Y-62500457D01*
X124539549Y-62509279D01*
X124652664Y-62874697D01*
X124675828Y-62929802D01*
X124698253Y-62985307D01*
X124702580Y-62993443D01*
X124884518Y-63329930D01*
X124917963Y-63379514D01*
X124950723Y-63429577D01*
X124956547Y-63436718D01*
X125200379Y-63731459D01*
X125242811Y-63773597D01*
X125284677Y-63816349D01*
X125291778Y-63822223D01*
X125588214Y-64063989D01*
X125638022Y-64097082D01*
X125687396Y-64130889D01*
X125695502Y-64135272D01*
X126033251Y-64314856D01*
X126088566Y-64337655D01*
X126143538Y-64361216D01*
X126152341Y-64363941D01*
X126518540Y-64474503D01*
X126577234Y-64486125D01*
X126635731Y-64498559D01*
X126644896Y-64499522D01*
X127025595Y-64536850D01*
X127025601Y-64536850D01*
X127057361Y-64539989D01*
X157032198Y-64550010D01*
X157061328Y-64547151D01*
X157073501Y-64547236D01*
X157082672Y-64546336D01*
X157463103Y-64506351D01*
X157521654Y-64494332D01*
X157580457Y-64483115D01*
X157589279Y-64480451D01*
X157954697Y-64367336D01*
X158009802Y-64344172D01*
X158065307Y-64321747D01*
X158073443Y-64317420D01*
X158409930Y-64135482D01*
X158459514Y-64102037D01*
X158509577Y-64069277D01*
X158516718Y-64063453D01*
X158811459Y-63819621D01*
X158853597Y-63777189D01*
X158896349Y-63735323D01*
X158902223Y-63728222D01*
X159143989Y-63431786D01*
X159177082Y-63381978D01*
X159210889Y-63332604D01*
X159215272Y-63324498D01*
X159394856Y-62986749D01*
X159417655Y-62931434D01*
X159441216Y-62876462D01*
X159443941Y-62867659D01*
X159554503Y-62501460D01*
X159566125Y-62442766D01*
X159578559Y-62384269D01*
X159579522Y-62375104D01*
X159601898Y-62146891D01*
X161498519Y-62146891D01*
X161595843Y-62421252D01*
X161744822Y-62671355D01*
X161939731Y-62887588D01*
X162173080Y-63061641D01*
X162435901Y-63186825D01*
X162583110Y-63231476D01*
X162813000Y-63110155D01*
X162813000Y-61917000D01*
X161619186Y-61917000D01*
X161498519Y-62146891D01*
X159601898Y-62146891D01*
X159616850Y-61994405D01*
X159616850Y-61994402D01*
X159620000Y-61962419D01*
X159620000Y-59606891D01*
X161498519Y-59606891D01*
X161595843Y-59881252D01*
X161744822Y-60131355D01*
X161939731Y-60347588D01*
X162170880Y-60520000D01*
X161939731Y-60692412D01*
X161744822Y-60908645D01*
X161595843Y-61158748D01*
X161498519Y-61433109D01*
X161619186Y-61663000D01*
X162813000Y-61663000D01*
X162813000Y-59377000D01*
X161619186Y-59377000D01*
X161498519Y-59606891D01*
X159620000Y-59606891D01*
X159620000Y-58893109D01*
X161498519Y-58893109D01*
X161619186Y-59123000D01*
X162813000Y-59123000D01*
X162813000Y-57929845D01*
X162583110Y-57808524D01*
X162435901Y-57853175D01*
X162173080Y-57978359D01*
X161939731Y-58152412D01*
X161744822Y-58368645D01*
X161595843Y-58618748D01*
X161498519Y-58893109D01*
X159620000Y-58893109D01*
X159620000Y-58062279D01*
X159647863Y-57778111D01*
X159721016Y-57535816D01*
X159839839Y-57312342D01*
X159999802Y-57116208D01*
X160194818Y-56954875D01*
X160417456Y-56834495D01*
X160659236Y-56759653D01*
X160941360Y-56730000D01*
X167077721Y-56730000D01*
X167361889Y-56757863D01*
X167604184Y-56831016D01*
X167827658Y-56949839D01*
X168023792Y-57109802D01*
X168185125Y-57304818D01*
X168305505Y-57527456D01*
X168380347Y-57769236D01*
X168409978Y-58051155D01*
X168390034Y-77197374D01*
X168362137Y-77481889D01*
X168288984Y-77724184D01*
X168170161Y-77947658D01*
X168010196Y-78143794D01*
X167815181Y-78305125D01*
X167592544Y-78425505D01*
X167350764Y-78500348D01*
X167068517Y-78530013D01*
X127612497Y-78553677D01*
X127613491Y-78553013D01*
X127883013Y-78283491D01*
X128094775Y-77966566D01*
X128240639Y-77614419D01*
X128315000Y-77240581D01*
X128315000Y-76859419D01*
X128240639Y-76485581D01*
X128094775Y-76133434D01*
X127883013Y-75816509D01*
X127613491Y-75546987D01*
X127296566Y-75335225D01*
X126944419Y-75189361D01*
X126570581Y-75115000D01*
X126189419Y-75115000D01*
X125815581Y-75189361D01*
X125463434Y-75335225D01*
X125146509Y-75546987D01*
X124876987Y-75816509D01*
X124665225Y-76133434D01*
X124519361Y-76485581D01*
X124445000Y-76859419D01*
X124445000Y-77240581D01*
X124519361Y-77614419D01*
X124665225Y-77966566D01*
X124876987Y-78283491D01*
X125146509Y-78553013D01*
X125149714Y-78555154D01*
X117102086Y-78559981D01*
X116818111Y-78532137D01*
X116575816Y-78458984D01*
X116352342Y-78340161D01*
X116156206Y-78180196D01*
X115994875Y-77985181D01*
X115874495Y-77762544D01*
X115799652Y-77520764D01*
X115769934Y-77238017D01*
X115758945Y-73699224D01*
X122210381Y-73699224D01*
X122342317Y-73994312D01*
X122683045Y-74165159D01*
X123050557Y-74266250D01*
X123430729Y-74293701D01*
X123808951Y-74246457D01*
X124170690Y-74126333D01*
X124417683Y-73994312D01*
X124549619Y-73699224D01*
X123380000Y-72529605D01*
X122210381Y-73699224D01*
X115758945Y-73699224D01*
X115754912Y-72400729D01*
X121436299Y-72400729D01*
X121483543Y-72778951D01*
X121603667Y-73140690D01*
X121735688Y-73387683D01*
X122030776Y-73519619D01*
X123200395Y-72350000D01*
X123559605Y-72350000D01*
X124729224Y-73519619D01*
X125024312Y-73387683D01*
X125195159Y-73046955D01*
X125296250Y-72679443D01*
X125323701Y-72299271D01*
X125276457Y-71921049D01*
X125156333Y-71559310D01*
X125024312Y-71312317D01*
X124729224Y-71180381D01*
X123559605Y-72350000D01*
X123200395Y-72350000D01*
X122030776Y-71180381D01*
X121735688Y-71312317D01*
X121564841Y-71653045D01*
X121463750Y-72020557D01*
X121436299Y-72400729D01*
X115754912Y-72400729D01*
X115750565Y-71000776D01*
X122210381Y-71000776D01*
X123380000Y-72170395D01*
X124549619Y-71000776D01*
X124417683Y-70705688D01*
X124076955Y-70534841D01*
X123709443Y-70433750D01*
X123329271Y-70406299D01*
X122951049Y-70453543D01*
X122589310Y-70573667D01*
X122342317Y-70705688D01*
X122210381Y-71000776D01*
X115750565Y-71000776D01*
X115723130Y-62166891D01*
X117098519Y-62166891D01*
X117195843Y-62441252D01*
X117344822Y-62691355D01*
X117539731Y-62907588D01*
X117773080Y-63081641D01*
X118035901Y-63206825D01*
X118183110Y-63251476D01*
X118413000Y-63130155D01*
X118413000Y-61937000D01*
X117219186Y-61937000D01*
X117098519Y-62166891D01*
X115723130Y-62166891D01*
X115715242Y-59626891D01*
X117098519Y-59626891D01*
X117195843Y-59901252D01*
X117344822Y-60151355D01*
X117539731Y-60367588D01*
X117770880Y-60540000D01*
X117539731Y-60712412D01*
X117344822Y-60928645D01*
X117195843Y-61178748D01*
X117098519Y-61453109D01*
X117219186Y-61683000D01*
X118413000Y-61683000D01*
X118413000Y-59397000D01*
X117219186Y-59397000D01*
X117098519Y-59626891D01*
X115715242Y-59626891D01*
X115713026Y-58913109D01*
X117098519Y-58913109D01*
X117219186Y-59143000D01*
X118413000Y-59143000D01*
X118413000Y-57949845D01*
X118667000Y-57949845D01*
X118667000Y-59143000D01*
X118687000Y-59143000D01*
X118687000Y-59397000D01*
X118667000Y-59397000D01*
X118667000Y-61683000D01*
X118687000Y-61683000D01*
X118687000Y-61937000D01*
X118667000Y-61937000D01*
X118667000Y-63130155D01*
X118896890Y-63251476D01*
X119044099Y-63206825D01*
X119306920Y-63081641D01*
X119540269Y-62907588D01*
X119616034Y-62823534D01*
X119640498Y-62904180D01*
X119699463Y-63014494D01*
X119778815Y-63111185D01*
X119875506Y-63190537D01*
X119985820Y-63249502D01*
X120105518Y-63285812D01*
X120230000Y-63298072D01*
X120425674Y-63298072D01*
X120445026Y-63334276D01*
X120483711Y-63381413D01*
X120540000Y-63450001D01*
X120568998Y-63473799D01*
X123976200Y-66881002D01*
X123999999Y-66910001D01*
X124028997Y-66933799D01*
X124115723Y-67004974D01*
X124228970Y-67065506D01*
X124247753Y-67075546D01*
X124391014Y-67119003D01*
X124502667Y-67130000D01*
X124502677Y-67130000D01*
X124540000Y-67133676D01*
X124577323Y-67130000D01*
X133511928Y-67130000D01*
X133511928Y-67350000D01*
X132107322Y-67350000D01*
X132069999Y-67346324D01*
X132032676Y-67350000D01*
X132032667Y-67350000D01*
X131921014Y-67360997D01*
X131777753Y-67404454D01*
X131645724Y-67475026D01*
X131645722Y-67475027D01*
X131645723Y-67475027D01*
X131558996Y-67546201D01*
X131558992Y-67546205D01*
X131529999Y-67569999D01*
X131506205Y-67598992D01*
X128868998Y-70236201D01*
X128840000Y-70259999D01*
X128816202Y-70288997D01*
X128816201Y-70288998D01*
X128745026Y-70375724D01*
X128725674Y-70411928D01*
X128080000Y-70411928D01*
X127955518Y-70424188D01*
X127835820Y-70460498D01*
X127725506Y-70519463D01*
X127628815Y-70598815D01*
X127549463Y-70695506D01*
X127490498Y-70805820D01*
X127454188Y-70925518D01*
X127441928Y-71050000D01*
X127441928Y-73650000D01*
X127454188Y-73774482D01*
X127490498Y-73894180D01*
X127549463Y-74004494D01*
X127628815Y-74101185D01*
X127725506Y-74180537D01*
X127835820Y-74239502D01*
X127955518Y-74275812D01*
X128080000Y-74288072D01*
X128725674Y-74288072D01*
X128745026Y-74324276D01*
X128784871Y-74372826D01*
X128839999Y-74440001D01*
X128869003Y-74463804D01*
X130651202Y-76246004D01*
X130675000Y-76275002D01*
X130790725Y-76369975D01*
X130922754Y-76440547D01*
X131066015Y-76484004D01*
X131177668Y-76495001D01*
X131177677Y-76495001D01*
X131215000Y-76498677D01*
X131252323Y-76495001D01*
X144867677Y-76495001D01*
X144904999Y-76498677D01*
X144942321Y-76495001D01*
X144942332Y-76495001D01*
X145053985Y-76484004D01*
X145197246Y-76440547D01*
X145329275Y-76369975D01*
X145445000Y-76275002D01*
X145468803Y-76245998D01*
X150806730Y-70908072D01*
X150820001Y-70908072D01*
X150993255Y-70891008D01*
X151159851Y-70840472D01*
X151313387Y-70758405D01*
X151447962Y-70647962D01*
X151558405Y-70513387D01*
X151589614Y-70455000D01*
X151961126Y-70455000D01*
X152062038Y-70577962D01*
X152196613Y-70688405D01*
X152350149Y-70770472D01*
X152516745Y-70821008D01*
X152689999Y-70838072D01*
X153590001Y-70838072D01*
X153763255Y-70821008D01*
X153929851Y-70770472D01*
X154083387Y-70688405D01*
X154217962Y-70577962D01*
X154328405Y-70443387D01*
X154410472Y-70289851D01*
X154461008Y-70123255D01*
X154478072Y-69950001D01*
X154478072Y-69361730D01*
X154659802Y-69180000D01*
X155471928Y-69180000D01*
X155471928Y-69420000D01*
X155484188Y-69544482D01*
X155520498Y-69664180D01*
X155579463Y-69774494D01*
X155658815Y-69871185D01*
X155755506Y-69950537D01*
X155865820Y-70009502D01*
X155985518Y-70045812D01*
X156110000Y-70058072D01*
X157610000Y-70058072D01*
X157734482Y-70045812D01*
X157854180Y-70009502D01*
X157964494Y-69950537D01*
X158010000Y-69913191D01*
X158055506Y-69950537D01*
X158165820Y-70009502D01*
X158285518Y-70045812D01*
X158400000Y-70057087D01*
X158400001Y-73081928D01*
X157260000Y-73081928D01*
X157135518Y-73094188D01*
X157015820Y-73130498D01*
X156905506Y-73189463D01*
X156808815Y-73268815D01*
X156729463Y-73365506D01*
X156670498Y-73475820D01*
X156634188Y-73595518D01*
X156621928Y-73720000D01*
X156621928Y-75720000D01*
X156634188Y-75844482D01*
X156670498Y-75964180D01*
X156729463Y-76074494D01*
X156808815Y-76171185D01*
X156905506Y-76250537D01*
X157015820Y-76309502D01*
X157135518Y-76345812D01*
X157260000Y-76358072D01*
X161060000Y-76358072D01*
X161184482Y-76345812D01*
X161304180Y-76309502D01*
X161414494Y-76250537D01*
X161511185Y-76171185D01*
X161590537Y-76074494D01*
X161649502Y-75964180D01*
X161685812Y-75844482D01*
X161698072Y-75720000D01*
X161698072Y-75374326D01*
X161734276Y-75354974D01*
X161850001Y-75260001D01*
X161873804Y-75230997D01*
X165496003Y-71608799D01*
X165525001Y-71585001D01*
X165619974Y-71469276D01*
X165690546Y-71337247D01*
X165734003Y-71193986D01*
X165745000Y-71082333D01*
X165745000Y-71082323D01*
X165748676Y-71045000D01*
X165745000Y-71007677D01*
X165745000Y-67079614D01*
X165803387Y-67048405D01*
X165937962Y-66937962D01*
X166048405Y-66803387D01*
X166130472Y-66649851D01*
X166181008Y-66483255D01*
X166198072Y-66310001D01*
X166198072Y-65615954D01*
X166229003Y-65513986D01*
X166240000Y-65402333D01*
X166240000Y-65402325D01*
X166243676Y-65365000D01*
X166240000Y-65327675D01*
X166240000Y-63278072D01*
X166330000Y-63278072D01*
X166454482Y-63265812D01*
X166574180Y-63229502D01*
X166684494Y-63170537D01*
X166781185Y-63091185D01*
X166860537Y-62994494D01*
X166919502Y-62884180D01*
X166955812Y-62764482D01*
X166968072Y-62640000D01*
X166968072Y-60940000D01*
X166955812Y-60815518D01*
X166919502Y-60695820D01*
X166860537Y-60585506D01*
X166781185Y-60488815D01*
X166684494Y-60409463D01*
X166574180Y-60350498D01*
X166501620Y-60328487D01*
X166633475Y-60196632D01*
X166795990Y-59953411D01*
X166907932Y-59683158D01*
X166965000Y-59396260D01*
X166965000Y-59103740D01*
X166907932Y-58816842D01*
X166795990Y-58546589D01*
X166633475Y-58303368D01*
X166426632Y-58096525D01*
X166183411Y-57934010D01*
X165913158Y-57822068D01*
X165626260Y-57765000D01*
X165333740Y-57765000D01*
X165046842Y-57822068D01*
X164776589Y-57934010D01*
X164533368Y-58096525D01*
X164326525Y-58303368D01*
X164204805Y-58485534D01*
X164135178Y-58368645D01*
X163940269Y-58152412D01*
X163706920Y-57978359D01*
X163444099Y-57853175D01*
X163296890Y-57808524D01*
X163067000Y-57929845D01*
X163067000Y-59123000D01*
X163087000Y-59123000D01*
X163087000Y-59377000D01*
X163067000Y-59377000D01*
X163067000Y-61663000D01*
X163087000Y-61663000D01*
X163087000Y-61917000D01*
X163067000Y-61917000D01*
X163067000Y-63110155D01*
X163296890Y-63231476D01*
X163444099Y-63186825D01*
X163706920Y-63061641D01*
X163940269Y-62887588D01*
X164016034Y-62803534D01*
X164040498Y-62884180D01*
X164099463Y-62994494D01*
X164178815Y-63091185D01*
X164275506Y-63170537D01*
X164385820Y-63229502D01*
X164505518Y-63265812D01*
X164630000Y-63278072D01*
X164720000Y-63278072D01*
X164720001Y-64521928D01*
X164659999Y-64521928D01*
X164486745Y-64538992D01*
X164320149Y-64589528D01*
X164166613Y-64671595D01*
X164032038Y-64782038D01*
X164026658Y-64788594D01*
X163961185Y-64708815D01*
X163864494Y-64629463D01*
X163754180Y-64570498D01*
X163634482Y-64534188D01*
X163510000Y-64521928D01*
X163220750Y-64525000D01*
X163062000Y-64683750D01*
X163062000Y-65733000D01*
X163082000Y-65733000D01*
X163082000Y-65987000D01*
X163062000Y-65987000D01*
X163062000Y-67036250D01*
X163220750Y-67195000D01*
X163510000Y-67198072D01*
X163634482Y-67185812D01*
X163754180Y-67149502D01*
X163864494Y-67090537D01*
X163961185Y-67011185D01*
X164026658Y-66931406D01*
X164032038Y-66937962D01*
X164166613Y-67048405D01*
X164225000Y-67079614D01*
X164225001Y-70730197D01*
X161590156Y-73365042D01*
X161511185Y-73268815D01*
X161414494Y-73189463D01*
X161304180Y-73130498D01*
X161184482Y-73094188D01*
X161060000Y-73081928D01*
X159920000Y-73081928D01*
X159920000Y-70057087D01*
X160034482Y-70045812D01*
X160154180Y-70009502D01*
X160264494Y-69950537D01*
X160310000Y-69913191D01*
X160355506Y-69950537D01*
X160465820Y-70009502D01*
X160585518Y-70045812D01*
X160710000Y-70058072D01*
X161174250Y-70055000D01*
X161333000Y-69896250D01*
X161333000Y-68547000D01*
X161587000Y-68547000D01*
X161587000Y-69896250D01*
X161745750Y-70055000D01*
X162210000Y-70058072D01*
X162334482Y-70045812D01*
X162454180Y-70009502D01*
X162564494Y-69950537D01*
X162661185Y-69871185D01*
X162740537Y-69774494D01*
X162799502Y-69664180D01*
X162835812Y-69544482D01*
X162848072Y-69420000D01*
X162845000Y-68705750D01*
X162686250Y-68547000D01*
X161587000Y-68547000D01*
X161333000Y-68547000D01*
X161313000Y-68547000D01*
X161313000Y-68293000D01*
X161333000Y-68293000D01*
X161333000Y-66943750D01*
X161587000Y-66943750D01*
X161587000Y-68293000D01*
X162686250Y-68293000D01*
X162845000Y-68134250D01*
X162848072Y-67420000D01*
X162835812Y-67295518D01*
X162799502Y-67175820D01*
X162753846Y-67090404D01*
X162808000Y-67036250D01*
X162808000Y-65987000D01*
X161883750Y-65987000D01*
X161725000Y-66145750D01*
X161721928Y-66560000D01*
X161734188Y-66684482D01*
X161764642Y-66784875D01*
X161745750Y-66785000D01*
X161587000Y-66943750D01*
X161333000Y-66943750D01*
X161174250Y-66785000D01*
X160710000Y-66781928D01*
X160585518Y-66794188D01*
X160465820Y-66830498D01*
X160355506Y-66889463D01*
X160310000Y-66926809D01*
X160264494Y-66889463D01*
X160154180Y-66830498D01*
X160034482Y-66794188D01*
X159910000Y-66781928D01*
X158410000Y-66781928D01*
X158285518Y-66794188D01*
X158165820Y-66830498D01*
X158055506Y-66889463D01*
X158010000Y-66926809D01*
X157964494Y-66889463D01*
X157854180Y-66830498D01*
X157734482Y-66794188D01*
X157610000Y-66781928D01*
X156110000Y-66781928D01*
X155985518Y-66794188D01*
X155865820Y-66830498D01*
X155755506Y-66889463D01*
X155658815Y-66968815D01*
X155579463Y-67065506D01*
X155520498Y-67175820D01*
X155484188Y-67295518D01*
X155471928Y-67420000D01*
X155471928Y-67660000D01*
X154382322Y-67660000D01*
X154344999Y-67656324D01*
X154307676Y-67660000D01*
X154307667Y-67660000D01*
X154196014Y-67670997D01*
X154093809Y-67702000D01*
X153267000Y-67702000D01*
X153267000Y-67722000D01*
X153013000Y-67722000D01*
X153013000Y-67702000D01*
X151963750Y-67702000D01*
X151805000Y-67860750D01*
X151801928Y-68150000D01*
X151814188Y-68274482D01*
X151850498Y-68394180D01*
X151909463Y-68504494D01*
X151988815Y-68601185D01*
X152068594Y-68666658D01*
X152062038Y-68672038D01*
X151951595Y-68806613D01*
X151882970Y-68935000D01*
X151589614Y-68935000D01*
X151558405Y-68876613D01*
X151447962Y-68742038D01*
X151441406Y-68736658D01*
X151521185Y-68671185D01*
X151600537Y-68574494D01*
X151659502Y-68464180D01*
X151695812Y-68344482D01*
X151708072Y-68220000D01*
X151705000Y-67930750D01*
X151546250Y-67772000D01*
X150497000Y-67772000D01*
X150497000Y-67792000D01*
X150243000Y-67792000D01*
X150243000Y-67772000D01*
X149193750Y-67772000D01*
X149035000Y-67930750D01*
X149031928Y-68220000D01*
X149044188Y-68344482D01*
X149080498Y-68464180D01*
X149139463Y-68574494D01*
X149218815Y-68671185D01*
X149298594Y-68736658D01*
X149292038Y-68742038D01*
X149181595Y-68876613D01*
X149099528Y-69030149D01*
X149048992Y-69196745D01*
X149031928Y-69369999D01*
X149031928Y-70020001D01*
X149048992Y-70193255D01*
X149099528Y-70359851D01*
X149136388Y-70428810D01*
X144590198Y-74975001D01*
X141834538Y-74975001D01*
X141865001Y-74950001D01*
X141888804Y-74920998D01*
X142883936Y-73925865D01*
X142933255Y-73921008D01*
X143099851Y-73870472D01*
X143253387Y-73788405D01*
X143387962Y-73677962D01*
X143460000Y-73590184D01*
X143532038Y-73677962D01*
X143666613Y-73788405D01*
X143820149Y-73870472D01*
X143986745Y-73921008D01*
X144159999Y-73938072D01*
X144810001Y-73938072D01*
X144983255Y-73921008D01*
X145149851Y-73870472D01*
X145303387Y-73788405D01*
X145437962Y-73677962D01*
X145548405Y-73543387D01*
X145630472Y-73389851D01*
X145681008Y-73223255D01*
X145698072Y-73050001D01*
X145698072Y-73036729D01*
X146921004Y-71813798D01*
X146950001Y-71790001D01*
X147044974Y-71674276D01*
X147115546Y-71542247D01*
X147159003Y-71398986D01*
X147169897Y-71288382D01*
X147388505Y-71142312D01*
X147602312Y-70928505D01*
X147770299Y-70677095D01*
X147886011Y-70397743D01*
X147945000Y-70101184D01*
X147945000Y-69798816D01*
X147886011Y-69502257D01*
X147770299Y-69222905D01*
X147602312Y-68971495D01*
X147535873Y-68905056D01*
X147554180Y-68899502D01*
X147664494Y-68840537D01*
X147761185Y-68761185D01*
X147840537Y-68664494D01*
X147899502Y-68554180D01*
X147935812Y-68434482D01*
X147948072Y-68310000D01*
X147945000Y-67695750D01*
X147786250Y-67537000D01*
X146537000Y-67537000D01*
X146537000Y-67557000D01*
X146283000Y-67557000D01*
X146283000Y-67537000D01*
X145033750Y-67537000D01*
X144875000Y-67695750D01*
X144871928Y-68310000D01*
X144884188Y-68434482D01*
X144920498Y-68554180D01*
X144979463Y-68664494D01*
X145058815Y-68761185D01*
X145155506Y-68840537D01*
X145265820Y-68899502D01*
X145284127Y-68905056D01*
X145217688Y-68971495D01*
X145049701Y-69222905D01*
X144933989Y-69502257D01*
X144875000Y-69798816D01*
X144875000Y-70101184D01*
X144933989Y-70397743D01*
X145049701Y-70677095D01*
X145217688Y-70928505D01*
X145431495Y-71142312D01*
X145438324Y-71146875D01*
X145218811Y-71366388D01*
X145149851Y-71329528D01*
X144983255Y-71278992D01*
X144810001Y-71261928D01*
X144159999Y-71261928D01*
X143986745Y-71278992D01*
X143820149Y-71329528D01*
X143666613Y-71411595D01*
X143532038Y-71522038D01*
X143460000Y-71609816D01*
X143387962Y-71522038D01*
X143253387Y-71411595D01*
X143190000Y-71377714D01*
X143190000Y-71099527D01*
X143219851Y-71090472D01*
X143373387Y-71008405D01*
X143507962Y-70897962D01*
X143618405Y-70763387D01*
X143700472Y-70609851D01*
X143751008Y-70443255D01*
X143768072Y-70270001D01*
X143768072Y-69619999D01*
X143751008Y-69446745D01*
X143700472Y-69280149D01*
X143618405Y-69126613D01*
X143507962Y-68992038D01*
X143501406Y-68986658D01*
X143581185Y-68921185D01*
X143660537Y-68824494D01*
X143719502Y-68714180D01*
X143755812Y-68594482D01*
X143768072Y-68470000D01*
X143765000Y-68180750D01*
X143606250Y-68022000D01*
X142557000Y-68022000D01*
X142557000Y-68042000D01*
X142303000Y-68042000D01*
X142303000Y-68022000D01*
X141253750Y-68022000D01*
X141095000Y-68180750D01*
X141091928Y-68470000D01*
X141104188Y-68594482D01*
X141140498Y-68714180D01*
X141199463Y-68824494D01*
X141278815Y-68921185D01*
X141358594Y-68986658D01*
X141352038Y-68992038D01*
X141241595Y-69126613D01*
X141159528Y-69280149D01*
X141108992Y-69446745D01*
X141091928Y-69619999D01*
X141091928Y-70270001D01*
X141108992Y-70443255D01*
X141159528Y-70609851D01*
X141241595Y-70763387D01*
X141352038Y-70897962D01*
X141486613Y-71008405D01*
X141640149Y-71090472D01*
X141670000Y-71099527D01*
X141670001Y-71383059D01*
X141616613Y-71411595D01*
X141482038Y-71522038D01*
X141371595Y-71656613D01*
X141289528Y-71810149D01*
X141238992Y-71976745D01*
X141221928Y-72149999D01*
X141221928Y-73050001D01*
X141238992Y-73223255D01*
X141285064Y-73375135D01*
X141010199Y-73650000D01*
X139738072Y-73650000D01*
X139738072Y-73410000D01*
X139725812Y-73285518D01*
X139689502Y-73165820D01*
X139630537Y-73055506D01*
X139551185Y-72958815D01*
X139454494Y-72879463D01*
X139344180Y-72820498D01*
X139224482Y-72784188D01*
X139100000Y-72771928D01*
X137960000Y-72771928D01*
X137960000Y-69747087D01*
X138074482Y-69735812D01*
X138194180Y-69699502D01*
X138304494Y-69640537D01*
X138350000Y-69603191D01*
X138395506Y-69640537D01*
X138505820Y-69699502D01*
X138625518Y-69735812D01*
X138750000Y-69748072D01*
X139214250Y-69745000D01*
X139373000Y-69586250D01*
X139373000Y-68237000D01*
X139627000Y-68237000D01*
X139627000Y-69586250D01*
X139785750Y-69745000D01*
X140250000Y-69748072D01*
X140374482Y-69735812D01*
X140494180Y-69699502D01*
X140604494Y-69640537D01*
X140701185Y-69561185D01*
X140780537Y-69464494D01*
X140839502Y-69354180D01*
X140875812Y-69234482D01*
X140888072Y-69110000D01*
X140885000Y-68395750D01*
X140726250Y-68237000D01*
X139627000Y-68237000D01*
X139373000Y-68237000D01*
X139353000Y-68237000D01*
X139353000Y-67983000D01*
X139373000Y-67983000D01*
X139373000Y-66633750D01*
X139627000Y-66633750D01*
X139627000Y-67983000D01*
X140726250Y-67983000D01*
X140885000Y-67824250D01*
X140887168Y-67320000D01*
X141091928Y-67320000D01*
X141095000Y-67609250D01*
X141253750Y-67768000D01*
X142303000Y-67768000D01*
X142303000Y-66843750D01*
X142557000Y-66843750D01*
X142557000Y-67768000D01*
X143606250Y-67768000D01*
X143765000Y-67609250D01*
X143768072Y-67320000D01*
X143755812Y-67195518D01*
X143719502Y-67075820D01*
X143660537Y-66965506D01*
X143581185Y-66868815D01*
X143484494Y-66789463D01*
X143374180Y-66730498D01*
X143254482Y-66694188D01*
X143130000Y-66681928D01*
X142715750Y-66685000D01*
X142557000Y-66843750D01*
X142303000Y-66843750D01*
X142144250Y-66685000D01*
X141730000Y-66681928D01*
X141605518Y-66694188D01*
X141485820Y-66730498D01*
X141375506Y-66789463D01*
X141278815Y-66868815D01*
X141199463Y-66965506D01*
X141140498Y-67075820D01*
X141104188Y-67195518D01*
X141091928Y-67320000D01*
X140887168Y-67320000D01*
X140888072Y-67110000D01*
X140875812Y-66985518D01*
X140839502Y-66865820D01*
X140780537Y-66755506D01*
X140701185Y-66658815D01*
X140604494Y-66579463D01*
X140494180Y-66520498D01*
X140459573Y-66510000D01*
X144871928Y-66510000D01*
X144875000Y-67124250D01*
X145033750Y-67283000D01*
X146283000Y-67283000D01*
X146283000Y-66033750D01*
X146537000Y-66033750D01*
X146537000Y-67283000D01*
X147786250Y-67283000D01*
X147945000Y-67124250D01*
X147945271Y-67070000D01*
X149031928Y-67070000D01*
X149035000Y-67359250D01*
X149193750Y-67518000D01*
X150243000Y-67518000D01*
X150243000Y-66593750D01*
X150497000Y-66593750D01*
X150497000Y-67518000D01*
X151546250Y-67518000D01*
X151705000Y-67359250D01*
X151708072Y-67070000D01*
X151701178Y-67000000D01*
X151801928Y-67000000D01*
X151805000Y-67289250D01*
X151963750Y-67448000D01*
X153013000Y-67448000D01*
X153013000Y-66523750D01*
X153267000Y-66523750D01*
X153267000Y-67448000D01*
X154316250Y-67448000D01*
X154475000Y-67289250D01*
X154478072Y-67000000D01*
X154465812Y-66875518D01*
X154429502Y-66755820D01*
X154370537Y-66645506D01*
X154291185Y-66548815D01*
X154194494Y-66469463D01*
X154084180Y-66410498D01*
X153964482Y-66374188D01*
X153840000Y-66361928D01*
X153425750Y-66365000D01*
X153267000Y-66523750D01*
X153013000Y-66523750D01*
X152854250Y-66365000D01*
X152440000Y-66361928D01*
X152315518Y-66374188D01*
X152195820Y-66410498D01*
X152085506Y-66469463D01*
X151988815Y-66548815D01*
X151909463Y-66645506D01*
X151850498Y-66755820D01*
X151814188Y-66875518D01*
X151801928Y-67000000D01*
X151701178Y-67000000D01*
X151695812Y-66945518D01*
X151659502Y-66825820D01*
X151600537Y-66715506D01*
X151521185Y-66618815D01*
X151424494Y-66539463D01*
X151314180Y-66480498D01*
X151194482Y-66444188D01*
X151070000Y-66431928D01*
X150655750Y-66435000D01*
X150497000Y-66593750D01*
X150243000Y-66593750D01*
X150084250Y-66435000D01*
X149670000Y-66431928D01*
X149545518Y-66444188D01*
X149425820Y-66480498D01*
X149315506Y-66539463D01*
X149218815Y-66618815D01*
X149139463Y-66715506D01*
X149080498Y-66825820D01*
X149044188Y-66945518D01*
X149031928Y-67070000D01*
X147945271Y-67070000D01*
X147948072Y-66510000D01*
X147935812Y-66385518D01*
X147899502Y-66265820D01*
X147840537Y-66155506D01*
X147761185Y-66058815D01*
X147664494Y-65979463D01*
X147554180Y-65920498D01*
X147434482Y-65884188D01*
X147310000Y-65871928D01*
X146695750Y-65875000D01*
X146537000Y-66033750D01*
X146283000Y-66033750D01*
X146124250Y-65875000D01*
X145510000Y-65871928D01*
X145385518Y-65884188D01*
X145265820Y-65920498D01*
X145155506Y-65979463D01*
X145058815Y-66058815D01*
X144979463Y-66155506D01*
X144920498Y-66265820D01*
X144884188Y-66385518D01*
X144871928Y-66510000D01*
X140459573Y-66510000D01*
X140374482Y-66484188D01*
X140250000Y-66471928D01*
X139785750Y-66475000D01*
X139627000Y-66633750D01*
X139373000Y-66633750D01*
X139214250Y-66475000D01*
X138750000Y-66471928D01*
X138625518Y-66484188D01*
X138505820Y-66520498D01*
X138395506Y-66579463D01*
X138350000Y-66616809D01*
X138304494Y-66579463D01*
X138194180Y-66520498D01*
X138074482Y-66484188D01*
X137950000Y-66471928D01*
X137854326Y-66471928D01*
X137834974Y-66435724D01*
X137740001Y-66319999D01*
X137710998Y-66296197D01*
X137273804Y-65859003D01*
X137250001Y-65829999D01*
X137134276Y-65735026D01*
X137002247Y-65664454D01*
X136858986Y-65620997D01*
X136747333Y-65610000D01*
X136747322Y-65610000D01*
X136710000Y-65606324D01*
X136672678Y-65610000D01*
X124854802Y-65610000D01*
X124404802Y-65160000D01*
X161721928Y-65160000D01*
X161725000Y-65574250D01*
X161883750Y-65733000D01*
X162808000Y-65733000D01*
X162808000Y-64683750D01*
X162649250Y-64525000D01*
X162360000Y-64521928D01*
X162235518Y-64534188D01*
X162115820Y-64570498D01*
X162005506Y-64629463D01*
X161908815Y-64708815D01*
X161829463Y-64805506D01*
X161770498Y-64915820D01*
X161734188Y-65035518D01*
X161721928Y-65160000D01*
X124404802Y-65160000D01*
X122367345Y-63122543D01*
X122381185Y-63111185D01*
X122460537Y-63014494D01*
X122519502Y-62904180D01*
X122555812Y-62784482D01*
X122568072Y-62660000D01*
X122568072Y-60960000D01*
X122555812Y-60835518D01*
X122519502Y-60715820D01*
X122460537Y-60605506D01*
X122381185Y-60508815D01*
X122284494Y-60429463D01*
X122174180Y-60370498D01*
X122101620Y-60348487D01*
X122233475Y-60216632D01*
X122395990Y-59973411D01*
X122507932Y-59703158D01*
X122565000Y-59416260D01*
X122565000Y-59123740D01*
X122507932Y-58836842D01*
X122395990Y-58566589D01*
X122233475Y-58323368D01*
X122026632Y-58116525D01*
X121783411Y-57954010D01*
X121513158Y-57842068D01*
X121226260Y-57785000D01*
X120933740Y-57785000D01*
X120646842Y-57842068D01*
X120376589Y-57954010D01*
X120133368Y-58116525D01*
X119926525Y-58323368D01*
X119804805Y-58505534D01*
X119735178Y-58388645D01*
X119540269Y-58172412D01*
X119306920Y-57998359D01*
X119044099Y-57873175D01*
X118896890Y-57828524D01*
X118667000Y-57949845D01*
X118413000Y-57949845D01*
X118183110Y-57828524D01*
X118035901Y-57873175D01*
X117773080Y-57998359D01*
X117539731Y-58172412D01*
X117344822Y-58388645D01*
X117195843Y-58638748D01*
X117098519Y-58913109D01*
X115713026Y-58913109D01*
X115710100Y-57971258D01*
X115737863Y-57688111D01*
X115811016Y-57445816D01*
X115929839Y-57222342D01*
X116089802Y-57026208D01*
X116284818Y-56864875D01*
X116507456Y-56744495D01*
X116749236Y-56669653D01*
X117032636Y-56639866D01*
X123129861Y-56600210D01*
X123411889Y-56627863D01*
M02*
